<svg width="118" height="117" viewBox="0 0 118 117" fill="none" xmlns="http://www.w3.org/2000/svg">
<rect x="1" y="0.5" width="116" height="116" rx="14.5" stroke="#BFBFBF"/>
<path d="M13.1487 93.2836V82.216H35.2838V104.351H13.1487V93.2836ZM32.1217 93.2836V85.3782H16.3108V101.189H32.1217V93.2836ZM19.473 93.2836V88.5403H28.9595V98.0268H19.473V93.2836ZM41.6081 102.77V101.189H38.446V94.8647H41.6081V85.3782H44.7703V82.216H38.446V79.0538H25.7973V75.8917H28.9595V72.7295H22.6352V79.0538H19.473V75.8917H13.1487V72.7295H19.473V66.4052H16.3108V69.5674H13.1487V63.243H19.473V66.4052H22.6352V69.5674H25.7973V66.4052H28.9595V69.5674H35.2838V66.4052H32.1217V63.243H22.6352V60.0809H32.1217V56.9187H22.6352V53.7565H19.473V56.9187H13.1487V47.4322H16.3108V50.5944H35.2838V47.4322H32.1217V44.2701H25.7973V47.4322H22.6352V44.2701H16.3108V37.9457H22.6352V44.2701H25.7973V41.1079H32.1217V37.9457H35.2838V41.1079H32.1217V44.2701H35.2838V47.4322H38.446V41.1079H41.6081V37.9457H38.446V28.4592H44.7703V31.6214H47.9325V34.7836H44.7703V37.9457H47.9325V56.9187H41.6081V53.7565H38.446V56.9187H35.2838V60.0809H32.1217V63.243H35.2838V66.4052H38.446V69.5674H44.7703V66.4052H41.6081V63.243H38.446V60.0809H44.7703V66.4052H47.9325V60.0809H51.0946V66.4052H54.2568V56.9187H57.419V53.7565H60.5811V56.9187H57.419V60.0809H60.5811V63.243H70.0676V60.0809H66.9054V56.9187H63.7433V50.5944H60.5811V47.4322H63.7433V44.2701H66.9054V41.1079H63.7433V37.9457H60.5811V44.2701H57.419V41.1079H54.2568V44.2701H51.0946V41.1079H54.2568V37.9457H51.0946V28.4592H47.9325V25.2971H51.0946V28.4592H54.2568V15.8106H57.419V22.1349H63.7433V18.9728H60.5811V12.6484H66.9054V15.8106H63.7433V18.9728H70.0676V15.8106H73.2298V12.6484H79.5541V22.1349H73.2298V18.9728H70.0676V25.2971H73.2298V34.7836H76.3919V31.6214H79.5541V47.4322H85.8784V44.2701H82.7163V37.9457H89.0406V47.4322H95.3649V44.2701H92.2027V37.9457H95.3649V44.2701H98.5271V41.1079H104.851V47.4322H101.689V44.2701H98.5271V47.4322H95.3649V56.9187H98.5271V60.0809H95.3649V63.243H89.0406V66.4052H85.8784V69.5674H79.5541V66.4052H76.3919V63.243H73.2298V69.5674H76.3919V72.7295H85.8784V75.8917H92.2027V72.7295H89.0406V69.5674H92.2027V66.4052H95.3649V69.5674H98.5271V72.7295H101.689V66.4052H98.5271V63.243H104.851V72.7295H101.689V79.0538H104.851V85.3782H101.689V94.8647H104.851V98.0268H95.3649V104.351H85.8784V101.189H92.2027V98.0268H85.8784V91.7025H82.7163V98.0268H79.5541V101.189H82.7163V104.351H76.3919V94.8647H73.2298V101.189H70.0676V98.0268H66.9054V85.3782H70.0676V94.8647H73.2298V85.3782H76.3919V79.0538H73.2298V75.8917H70.0676V72.7295H73.2298V69.5674H70.0676V66.4052H66.9054V79.0538H70.0676V82.216H63.7433V88.5403H60.5811V94.8647H63.7433V98.0268H60.5811V101.189H66.9054V104.351H60.5811V101.189H57.419V98.0268H54.2568V104.351H41.6081V102.77ZM51.0946 98.0268V94.8647H54.2568V85.3782H47.9325V88.5403H51.0946V91.7025H44.7703V94.8647H41.6081V98.0268H44.7703V101.189H51.0946V98.0268ZM95.3649 94.8647V91.7025H98.5271V85.3782H101.689V82.216H98.5271V72.7295H95.3649V82.216H98.5271V85.3782H95.3649V88.5403H92.2027V98.0268H95.3649V94.8647ZM79.5541 93.2836V91.7025H76.3919V94.8647H79.5541V93.2836ZM60.5811 86.9593V85.3782H57.419V88.5403H60.5811V86.9593ZM89.0406 83.7971V79.0538H79.5541V88.5403H89.0406V83.7971ZM82.7163 83.7971V82.216H85.8784V85.3782H82.7163V83.7971ZM57.419 80.6349V79.0538H63.7433V75.8917H57.419V72.7295H54.2568V75.8917H57.419V79.0538H51.0946V75.8917H47.9325V79.0538H44.7703V75.8917H41.6081V72.7295H38.446V69.5674H35.2838V72.7295H32.1217V75.8917H35.2838V72.7295H38.446V75.8917H41.6081V79.0538H44.7703V82.216H57.419V80.6349ZM47.9325 71.1484V69.5674H44.7703V72.7295H47.9325V71.1484ZM63.7433 69.5674V66.4052H57.419V69.5674H60.5811V72.7295H63.7433V69.5674ZM82.7163 64.8241V63.243H79.5541V66.4052H82.7163V64.8241ZM89.0406 61.662V60.0809H92.2027V50.5944H89.0406V53.7565H85.8784V56.9187H82.7163V53.7565H76.3919V50.5944H73.2298V47.4322H76.3919V37.9457H73.2298V34.7836H70.0676V31.6214H66.9054V34.7836H63.7433V25.2971H66.9054V28.4592H70.0676V25.2971H66.9054V22.1349H63.7433V25.2971H60.5811V34.7836H63.7433V37.9457H66.9054V34.7836H70.0676V44.2701H66.9054V47.4322H63.7433V50.5944H66.9054V56.9187H70.0676V53.7565H76.3919V56.9187H79.5541V60.0809H85.8784V63.243H89.0406V61.662ZM85.8784 58.4998V56.9187H89.0406V60.0809H85.8784V58.4998ZM35.2838 55.3376V53.7565H38.446V50.5944H35.2838V53.7565H32.1217V56.9187H35.2838V55.3376ZM44.7703 49.0133V47.4322H41.6081V50.5944H44.7703V49.0133ZM44.7703 33.2025V31.6214H41.6081V34.7836H44.7703V33.2025ZM57.419 31.6214V28.4592H54.2568V34.7836H57.419V31.6214ZM76.3919 17.3917V15.8106H73.2298V18.9728H76.3919V17.3917ZM101.689 102.77V101.189H104.851V104.351H101.689V102.77ZM101.689 56.9187V53.7565H98.5271V50.5944H101.689V53.7565H104.851V60.0809H101.689V56.9187ZM13.1487 23.716V12.6484H35.2838V34.7836H13.1487V23.716ZM32.1217 23.716V15.8106H16.3108V31.6214H32.1217V23.716ZM19.473 23.716V18.9728H28.9595V28.4592H19.473V23.716ZM82.7163 23.716V12.6484H104.851V34.7836H82.7163V23.716ZM101.689 23.716V15.8106H85.8784V31.6214H101.689V23.716ZM89.0406 23.716V18.9728H98.5271V28.4592H89.0406V23.716ZM38.446 23.716V22.1349H41.6081V25.2971H38.446V23.716ZM44.7703 20.5538V18.9728H41.6081V12.6484H44.7703V15.8106H47.9325V12.6484H51.0946V15.8106H47.9325V22.1349H44.7703V20.5538Z" fill="black"/>
</svg>
