<svg width="500" height="137" viewBox="0 0 500 137" fill="none" xmlns="http://www.w3.org/2000/svg">
<mask id="mask0_2186_1649" style="mask-type:luminance" maskUnits="userSpaceOnUse" x="-56" y="0" width="1150" height="137">
<path d="M-56 137L1094 137V0L-56 0V137Z" fill="white"/>
</mask>
<g mask="url(#mask0_2186_1649)">
<path d="M436.038 137H451.989C455.516 91.3378 459.043 45.6712 462.569 0H449.135C444.769 45.6712 440.404 91.3378 436.038 137Z" fill="white" fill-opacity="0.16"/>
<path d="M361.044 137H376.941C384.418 91.3378 391.895 45.6712 399.373 0H385.938C377.658 45.6712 369.36 91.3378 361.044 137Z" fill="white" fill-opacity="0.16"/>
<path d="M286.064 137H302.016C313.434 91.3378 324.88 45.6712 336.353 0H322.824C310.566 45.6712 298.313 91.3378 286.064 137Z" fill="white" fill-opacity="0.16"/>
<path d="M211.07 137H227.022C242.355 91.3378 257.729 45.6712 273.143 0H259.709C243.491 45.6712 227.279 91.3378 211.07 137Z" fill="white" fill-opacity="0.16"/>
<path d="M136.118 137H152.069C171.389 91.3378 190.705 45.6712 210.016 0H196.581C176.422 45.6712 156.268 91.3378 136.118 137Z" fill="white" fill-opacity="0.16"/>
<path d="M61.0977 137H77.0624L146.847 0H133.412C109.321 45.6712 85.2161 91.3378 61.0977 137Z" fill="white" fill-opacity="0.16"/>
<path d="M-13.8828 137H2.06836C29.2895 91.3378 56.5017 45.6712 83.7048 0H70.2701C42.2192 45.6712 14.1682 91.3378 -13.8828 137Z" fill="white" fill-opacity="0.16"/>
<path d="M-88.8623 137H-72.9111L20.5771 0H7.14241L-88.8623 137Z" fill="white" fill-opacity="0.16"/>
</g>
</svg>
