<svg width="158" height="33" viewBox="0 0 158 33" fill="none" xmlns="http://www.w3.org/2000/svg">
<path d="M84.4992 11.1669V21.8338H80.1656V11.1669C80.1656 7.63052 77.2559 4.76689 73.666 4.76689C70.076 4.76689 67.1666 7.63052 67.1666 11.1669V21.8338H62.833V0.5H67.1666V2.63542C68.9765 1.2936 71.2295 0.5 73.666 0.5C76.1048 0.5 78.3551 1.29327 80.1656 2.63542C82.7973 4.58095 84.4992 7.67973 84.4992 11.1669Z" fill="#1D293F"/>
<path d="M110.499 0.500333V16.4995C110.499 18.3691 110.171 20.1647 109.574 21.8338C107.342 28.0478 101.324 32.5 94.2498 32.5C93.8852 32.5 93.5237 32.4881 93.1668 32.4623C91.6557 32.3682 90.202 32.0637 88.8328 31.5898V26.953C90.1527 27.6182 91.6178 28.0478 93.1668 28.1836C93.5213 28.2149 93.8832 28.2341 94.2498 28.2341C99.5598 28.2341 104.058 24.8156 105.599 20.0894C103.893 21.1941 101.856 21.8338 99.6668 21.8338C97.2293 21.8338 94.9774 21.0385 93.1664 19.698C90.5338 17.7509 88.8325 14.6544 88.8325 11.1669V0.5H93.1664V11.1669C93.1664 14.7006 96.0755 17.5669 99.6668 17.5669C102.449 17.5669 104.826 15.8426 105.749 13.4182C106.019 12.7191 106.166 11.9592 106.166 11.1669V0.5H110.499V0.500333Z" fill="#1D293F"/>
<path d="M125.668 0.500488C119.683 0.500488 114.833 5.27662 114.833 11.1674C114.833 17.0575 119.683 21.8343 125.668 21.8343C131.65 21.8343 136.5 17.0575 136.5 11.1674C136.5 5.27662 131.65 0.500488 125.668 0.500488ZM125.668 17.5671C122.076 17.5671 119.167 14.7008 119.167 11.167C119.167 7.63068 122.076 4.76705 125.668 4.76705C129.256 4.76705 132.166 7.63068 132.166 11.167C132.166 14.7011 129.256 17.5671 125.668 17.5671Z" fill="#1D293F"/>
<path d="M4.33392 7.02449C4.33392 7.90164 4.84108 8.66057 5.58369 9.03343H8.66617C9.95282 9.03343 11.1519 9.40298 12.1615 10.0407C13.9691 11.1741 15.1665 13.1662 15.1665 15.4328C15.1665 18.9688 12.2575 21.8344 8.66617 21.8344H0V17.5675H8.48906C9.78411 17.5675 10.8343 16.5603 10.8343 15.3165C10.8343 14.4334 10.3027 13.6679 9.52684 13.3006H6.50105C5.21305 13.3006 4.01393 12.9317 3.00466 12.2947C1.19845 11.1613 0.000348027 9.16751 0.000348027 6.90064C0.000348027 3.36593 2.91109 0.500977 6.50105 0.500977H15.1669V4.76787H6.63019C5.36131 4.76754 4.33392 5.77844 4.33392 7.02449Z" fill="#1D293F"/>
<path d="M157.598 0.500488V4.76738H151.099C149.174 4.76738 147.446 5.59104 146.257 6.90017C145.225 8.03327 144.599 9.52898 144.599 11.1674V21.8343H140.264V0.500488H144.599V2.63591C145.859 1.70195 147.331 1.03352 148.932 0.715817C149.633 0.572486 150.359 0.500821 151.099 0.500821H157.598V0.500488Z" fill="#1D293F"/>
<path d="M58.4996 0.500488V11.1674H54.167C54.1536 8.79878 52.8485 6.73438 50.9118 5.62868C49.9562 5.08013 48.8496 4.76738 47.6653 4.76738C44.0887 4.76738 41.1844 7.63001 41.1659 11.1674V11.2024C41.1659 14.7569 44.0763 17.6374 47.6653 17.6374C48.857 17.6374 49.976 17.32 50.9349 16.7649C51.4753 18.0809 52.2031 19.3052 53.0823 20.4036C51.4904 21.3128 49.6399 21.8339 47.6653 21.8339C44.1219 21.8339 40.9751 20.1559 39.0001 17.5647C37.6383 15.7814 36.8333 13.566 36.8333 11.167C36.8333 8.79714 35.5262 6.72909 33.5805 5.62372C32.6252 5.07781 31.515 4.76705 30.3326 4.76705C26.7427 4.76705 23.8323 7.63068 23.8323 11.167C23.8323 14.7008 26.7427 17.5671 30.3326 17.5671C31.5146 17.5671 32.6252 17.255 33.5805 16.7087C34.1222 18.0469 34.8564 19.2906 35.75 20.4036C34.1571 21.3128 32.3076 21.8339 30.333 21.8339C25.6445 21.8339 21.6484 18.898 20.144 14.7909C19.7268 13.6582 19.499 12.4382 19.499 11.167C19.499 10.8054 19.5175 10.4491 19.5544 10.1V0.500488H30.333C31.6247 0.500488 32.8647 0.724735 34.0145 1.13458C34.6193 1.34727 35.1989 1.61576 35.7503 1.93016C36.1471 2.15341 36.5261 2.40441 36.888 2.67654C37.6873 3.27364 38.3977 3.97774 39.0008 4.7687C39.6153 3.96024 40.3452 3.24127 41.1666 2.63591C42.0185 2.00513 42.9674 1.49456 43.9844 1.13458C45.1359 0.724735 46.3753 0.500488 47.666 0.500488H58.4996Z" fill="#70B896"/>
<path d="M45.5003 25.9759L38.7252 32.4998L31.9146 25.9968C33.2267 25.8462 34.4852 25.5334 35.6719 25.0714L38.7252 28.0027L41.7969 25.0205C42.9675 25.4862 44.2089 25.8095 45.5003 25.9759Z" fill="#F0A905"/>
<path d="M30.3325 9.6465C31.3464 9.6465 32.2078 10.2806 32.5361 11.1673H34.7375C34.7375 9.72444 34.022 8.44505 32.9215 7.65772V7.6554C32.195 7.1369 31.3001 6.8291 30.3321 6.8291C27.8997 6.8291 25.9268 8.77099 25.9268 11.1673H28.1281C28.4571 10.2806 29.3185 9.6465 30.3325 9.6465Z" fill="#1D293F"/>
<path d="M47.4456 9.6465C48.4595 9.6465 49.3209 10.2806 49.6493 11.1673H51.9999C51.9999 9.74987 51.3116 8.49194 50.2466 7.69999C49.5067 7.15408 48.5893 6.8291 47.5948 6.8291C45.1617 6.8291 43.1885 8.77099 43.1885 11.1673H45.2416C45.5703 10.2806 46.4316 9.6465 47.4456 9.6465Z" fill="#1D293F"/>
</svg>
