<svg width="322" height="12" viewBox="0 0 322 12" fill="none" xmlns="http://www.w3.org/2000/svg">
  <path d="M321.845 4.35726C321.748 4.13667 321.628 3.95289 321.491 3.81652C321.446 3.76949 321.4 3.72928 321.351 3.69634C321.288 3.65443 321.223 3.61834 321.158 3.58819C320.998 3.51609 320.878 3.48002 320.765 3.44396C319.905 3.2517 319.158 3.20364 318.379 3.11952L316.072 2.9633L311.472 2.75903L302.293 2.5427L283.942 2.33843L247.233 2.21826H210.53H150.717C130.779 2.21826 110.841 2.21826 90.9101 2.3264H83.731C84.0519 2.05226 84.3969 1.88146 84.7508 1.82172C91.93 0.247508 86.2641 -0.221153 64.8197 0.0912851C60.1534 0.163387 55.2073 0.0912851 50.4412 0.0912851C39.3958 0.0312008 20.8179 0.0912851 9.66575 0.0912851C7.97927 0.0912851 6.27278 0.163367 4.54631 0.259502C3.67974 0.259502 2.81317 0.355653 1.87994 0.463805H1.53332L1.13336 0.559924C1.03902 0.581503 0.94552 0.61363 0.853389 0.656079H0.793395L0.680079 0.728178C0.604398 0.796658 0.53095 0.872892 0.4601 0.956502C0.368676 1.07381 0.287748 1.21566 0.220127 1.3771C0.0802172 1.7047 0.00302834 2.10526 0.000149759 2.51868C-0.00417809 3.00292 0.0854152 3.47471 0.253458 3.85257C0.320278 3.98503 0.393926 4.10574 0.473425 4.21306L0.60008 4.35726L0.686738 4.42936L0.866724 4.5375C1.02719 4.60304 1.18967 4.65123 1.35333 4.68174C1.83995 4.77787 2.27323 4.8139 2.68652 4.84995C6.19944 5.12634 9.69241 5.18641 13.1587 5.24649L21.3111 5.3787L19.1514 5.46282L17.4116 5.583H15.3251V6.01559H15.1585L14.9585 6.13577C14.8673 6.2007 14.7818 6.2898 14.7052 6.40014C14.5506 6.61289 14.4327 6.90043 14.3652 7.22931C14.3116 7.5067 14.2939 7.80256 14.3135 8.09419C14.3332 8.38582 14.3896 8.66548 14.4786 8.91165L14.8585 9.68068H15.6651V9.88505C15.6651 10.0172 15.6651 9.88505 15.6651 9.95714H15.6984H15.9051L16.3917 9.88505L17.3849 9.78886H17.5982C67.6927 10.6421 117.78 10.0292 167.921 9.64468H179.527C178.381 9.88505 177.727 10.1494 177.641 10.4498C177.241 11.8077 197.112 11.8077 208.797 11.8678L236.847 12H250.846C253.183 12 255.525 12 257.872 12C259.045 12 260.218 12 261.404 11.8918C261.998 11.8918 262.584 11.8197 263.211 11.7356L263.717 11.6515L263.898 11.5914H264.044C264.164 11.291 264.111 12.0961 264.831 10.3296C264.825 9.72471 264.778 9.1234 264.691 8.53913L284.735 8.47903L303.06 8.34686L312.232 8.19064L316.832 8.02242L319.145 7.86619C319.532 7.86619 319.918 7.7941 320.325 7.722C320.569 7.69514 320.812 7.63484 321.051 7.54171H321.151L321.298 7.43357C321.457 7.31427 321.597 7.12409 321.705 6.88081C322.171 6.86879 321.978 3.76843 321.845 4.35726Z" fill="#70B896"/>
</svg>
