<svg width="11" height="11" viewBox="0 0 11 11" fill="none" xmlns="http://www.w3.org/2000/svg">
  <path d="M6.67634 5.36356L9.85369 1.36846C9.99279 1.19314 10.0565 0.969745 10.0309 0.74742C10.0053 0.525094 9.89245 0.322047 9.71713 0.182948C9.54181 0.0438493 9.31842 -0.0199082 9.09609 0.00570211C8.87377 0.0313124 8.67072 0.144192 8.53162 0.31951L5.36358 4.322L1.36848 1.14465C1.19316 1.00555 0.969769 0.941793 0.747443 0.967404C0.525117 0.993014 0.322071 1.10589 0.182972 1.28121C0.0438728 1.45653 -0.0198846 1.67992 0.00572571 1.90225C0.031336 2.12457 0.144216 2.32762 0.319533 2.46672L4.32202 5.63476L1.14467 9.62986C1.07536 9.71649 1.02389 9.81598 0.993225 9.9226C0.962559 10.0292 0.953307 10.1409 0.966003 10.2511C0.978698 10.3613 1.01309 10.4679 1.06719 10.5647C1.1213 10.6616 1.19404 10.7468 1.28123 10.8154C1.36786 10.8847 1.46735 10.9362 1.57397 10.9668C1.68059 10.9975 1.79222 11.0067 1.90244 10.994C2.01265 10.9813 2.11926 10.947 2.21611 10.8928C2.31296 10.8387 2.39815 10.766 2.46674 10.6788L5.63478 6.67632L9.62989 9.85367C9.71651 9.92298 9.816 9.97445 9.92262 10.0051C10.0292 10.0358 10.1409 10.045 10.2511 10.0323C10.3613 10.0196 10.4679 9.98525 10.5648 9.93115C10.6616 9.87704 10.7468 9.8043 10.8154 9.71711C10.8847 9.63048 10.9362 9.53099 10.9668 9.42437C10.9975 9.31775 11.0068 9.20612 10.9941 9.09591C10.9814 8.98569 10.947 8.87909 10.8929 8.78223C10.8388 8.68538 10.766 8.6002 10.6788 8.5316L6.67634 5.36356Z" fill="#6C7482"/>
</svg>
