<svg width="394" height="394" viewBox="0 0 394 394" fill="none" xmlns="http://www.w3.org/2000/svg">
<path fill-rule="evenodd" clip-rule="evenodd" d="M197 43.34C197 19.404 177.596 0 153.66 0H43.34C19.404 0 0 19.4039 0 43.34V155.077C0 179.013 19.404 198.416 43.34 198.416H153.66C177.596 198.416 197 217.821 197 241.756V350.66C197 374.595 216.405 394 240.34 394H350.66C374.595 394 394 374.595 394 350.66V238.922C394 214.986 374.595 195.583 350.66 195.583H240.34C216.405 195.583 197 176.179 197 152.243V43.34Z" fill="#70B896" fill-opacity="0.08"/>
</svg>
