<svg width="166" height="35" viewBox="0 0 166 35" fill="none" xmlns="http://www.w3.org/2000/svg">
<path d="M89.0039 11.4112V22.8223H84.4393V11.4112C84.4393 7.62805 81.3744 4.56461 77.5931 4.56461C73.8117 4.56461 70.7472 7.62805 70.7472 11.4112V22.8223H66.1826V0H70.7472V2.28442C72.6536 0.848975 75.0267 0 77.5931 0C80.1619 0 82.5322 0.848622 84.4393 2.28442C87.2112 4.3657 89.0039 7.68069 89.0039 11.4112Z" fill="#1D293F"/>
<path d="M116.39 0.000355799V17.1159C116.39 19.1159 116.044 21.0368 115.416 22.8223C113.065 29.47 106.726 34.2328 99.2745 34.2328C98.8904 34.2328 98.5096 34.22 98.1337 34.1925C96.5421 34.0918 95.0109 33.7661 93.5687 33.2591V28.2988C94.9589 29.0103 96.5021 29.47 98.1337 29.6152C98.5071 29.6487 98.8883 29.6692 99.2745 29.6692C104.868 29.6692 109.606 26.0122 111.228 20.9562C109.432 22.138 107.286 22.8223 104.98 22.8223C102.413 22.8223 100.041 21.9716 98.1333 20.5375C95.3603 18.4545 93.5684 15.142 93.5684 11.4112V0H98.1333V11.4112C98.1333 15.1914 101.197 18.2577 104.98 18.2577C107.91 18.2577 110.414 16.4131 111.386 13.8196C111.671 13.0717 111.826 12.2587 111.826 11.4112V0H116.39V0.000355799Z" fill="#1D293F"/>
<path d="M132.367 0.000488281C126.064 0.000488281 120.954 5.10987 120.954 11.4116C120.954 17.7127 126.064 22.8228 132.367 22.8228C138.668 22.8228 143.776 17.7127 143.776 11.4116C143.776 5.10987 138.668 0.000488281 132.367 0.000488281ZM132.367 18.2579C128.584 18.2579 125.519 15.1916 125.519 11.4113C125.519 7.62818 128.584 4.56474 132.367 4.56474C136.146 4.56474 139.212 7.62818 139.212 11.4113C139.212 15.1919 136.146 18.2579 132.367 18.2579Z" fill="#1D293F"/>
<path d="M4.56496 6.97917C4.56496 7.91753 5.09915 8.72941 5.88135 9.12828H9.12816C10.4834 9.12828 11.7464 9.52362 12.8099 10.2058C14.7138 11.4184 15.9751 13.5494 15.9751 15.9741C15.9751 19.7569 12.9109 22.8224 9.12816 22.8224H0V18.2578H8.94161C10.3057 18.2578 11.4119 17.1803 11.4119 15.8498C11.4119 14.9051 10.8519 14.0861 10.0347 13.6932H6.84762C5.49096 13.6932 4.22791 13.2986 3.16484 12.6171C1.26233 11.4046 0.000366581 9.27172 0.000366581 6.84668C0.000366581 3.06534 3.06628 0.000488281 6.84762 0.000488281H15.9754V4.5651H6.98364C5.64712 4.56474 4.56496 5.64618 4.56496 6.97917Z" fill="#1D293F"/>
<path d="M166 0.000488281V4.5651H159.154C157.127 4.5651 155.306 5.44622 154.054 6.84669C152.967 8.05886 152.307 9.65893 152.307 11.4116V22.8228H147.741V0.000488281H152.307V2.28491C153.635 1.28579 155.185 0.570713 156.872 0.230841C157.61 0.07751 158.375 0.00084408 159.154 0.00084408H166V0.000488281Z" fill="#1D293F"/>
<path d="M61.6187 0.000488281V11.4116H57.0552C57.0411 8.87779 55.6664 6.66934 53.6264 5.4865C52.6199 4.89967 51.4544 4.5651 50.2069 4.5651C46.4396 4.5651 43.3804 7.62747 43.361 11.4116V11.4491C43.361 15.2516 46.4266 18.3331 50.2069 18.3331C51.4621 18.3331 52.6407 17.9936 53.6508 17.3997C54.22 18.8076 54.9866 20.1173 55.9126 21.2923C54.2359 22.2649 52.2867 22.8224 50.2069 22.8224C46.4746 22.8224 43.16 21.0273 41.0798 18.2554C39.6454 16.3476 38.7975 13.9776 38.7975 11.4113C38.7975 8.87603 37.4207 6.66368 35.3712 5.48119C34.365 4.89719 33.1956 4.56474 31.9502 4.56474C28.1689 4.56474 25.1033 7.62818 25.1033 11.4113C25.1033 15.1916 28.1689 18.2579 31.9502 18.2579C33.1952 18.2579 34.365 17.924 35.3712 17.3396C35.9418 18.7712 36.7151 20.1017 37.6563 21.2923C35.9785 22.2649 34.0304 22.8224 31.9506 22.8224C27.0122 22.8224 22.803 19.6816 21.2185 15.288C20.779 14.0762 20.5391 12.7711 20.5391 11.4113C20.5391 11.0244 20.5585 10.6432 20.5973 10.2698V0.000488281H31.9506C33.3111 0.000488281 34.6173 0.240382 35.8284 0.678824C36.4654 0.906348 37.0759 1.19358 37.6567 1.52992C38.0746 1.76875 38.4739 2.03725 38.8551 2.32837C39.697 2.96713 40.4453 3.72036 41.0805 4.56651C41.7277 3.70164 42.4965 2.9325 43.3617 2.28491C44.2591 1.61011 45.2586 1.06392 46.3298 0.678824C47.5426 0.240382 48.8481 0.000488281 50.2076 0.000488281H61.6187Z" fill="#1D293F"/>
<path d="M47.9252 27.254L40.7889 34.2331L33.6152 27.2763C34.9973 27.1152 36.3229 26.7806 37.5729 26.2864L40.7889 29.4222L44.0244 26.2319C45.2574 26.7301 46.565 27.076 47.9252 27.254Z" fill="#1D293F"/>
<path d="M31.9501 9.78449C33.0182 9.78449 33.9254 10.4628 34.2713 11.4114H36.59C36.59 9.86786 35.8364 8.4992 34.6772 7.65694V7.65446C33.912 7.09979 32.9694 6.77051 31.9498 6.77051C29.3877 6.77051 27.3096 8.84789 27.3096 11.4114H29.6283C29.9748 10.4628 30.8821 9.78449 31.9501 9.78449Z" fill="#1D293F"/>
<path d="M49.9743 9.78449C51.0423 9.78449 51.9496 10.4628 52.2954 11.4114H54.7713C54.7713 9.89507 54.0464 8.54937 52.9247 7.70216C52.1453 7.11816 51.179 6.77051 50.1315 6.77051C47.5687 6.77051 45.4902 8.84789 45.4902 11.4114H47.6528C47.999 10.4628 48.9063 9.78449 49.9743 9.78449Z" fill="#1D293F"/>
</svg>
