<svg width="43" height="43" viewBox="0 0 43 43" fill="none" xmlns="http://www.w3.org/2000/svg">
  <rect y="4.44074" width="38.8136" height="38.8136" rx="9" transform="rotate(-6.57 0 4.44074)" fill="#F7AC00"/>
  <g clip-path="url(#clip0_2186_2689)">
    <path d="M14.8857 17.6344C15.7263 17.5376 16.3292 16.7776 16.2324 15.937C16.1356 15.0964 15.3757 14.4935 14.5351 14.5903C13.6945 14.6871 13.0915 15.447 13.1883 16.2876C13.2851 17.1282 14.0451 17.7312 14.8857 17.6344Z" stroke="white" stroke-width="1.6" stroke-linecap="round" stroke-linejoin="round"/>
    <path d="M22.4078 15.9968L24.4279 13.4508L26.974 15.4709" stroke="white" stroke-width="1.6" stroke-linecap="round" stroke-linejoin="round"/>
    <path d="M22.8457 19.8022L24.8658 17.2561L27.4119 19.2763" stroke="white" stroke-width="1.6" stroke-linecap="round" stroke-linejoin="round"/>
    <path d="M25.4799 22.5832L24.4281 13.4509" stroke="white" stroke-width="1.6" stroke-linecap="round" stroke-linejoin="round"/>
    <path d="M25.4798 22.5832L17.8695 23.4597L14.7655 29.9861L29.9861 28.2331L25.4798 22.5832Z" stroke="white" stroke-width="1.6" stroke-linecap="round" stroke-linejoin="round"/>
    <path d="M18.6308 23.3723L19.332 29.4605" stroke="white" stroke-width="1.6" stroke-linecap="round" stroke-linejoin="round"/>
    <path d="M19.3918 23.2845L23.8982 28.9344" stroke="white" stroke-width="1.6" stroke-linecap="round" stroke-linejoin="round"/>
  </g>
  <defs>
    <clipPath id="clip0_2186_2689">
      <rect width="18" height="18" fill="white" transform="translate(11.3153 13.419) scale(1.02141) rotate(-6.57)"/>
    </clipPath>
  </defs>
</svg>
