<svg width="26" height="26" viewBox="0 0 26 26" fill="none" xmlns="http://www.w3.org/2000/svg">
<path d="M12.5631 5.79332C13.2867 3.94865 13.6486 3.02631 14.4053 2.91261C15.1621 2.79891 15.8125 3.56914 17.1134 5.1096L17.45 5.50813C17.8197 5.94588 18.0045 6.16477 18.2558 6.28975C18.5072 6.41473 18.7964 6.43165 19.3752 6.46552L19.902 6.49635C21.9384 6.61554 22.9566 6.67513 23.31 7.34086C23.6633 8.0066 23.1178 8.83758 22.0267 10.4996L21.7445 10.9295C21.4345 11.4018 21.2795 11.638 21.2376 11.9075C21.1957 12.1771 21.2716 12.4497 21.4236 12.9948L21.5621 13.4912C22.097 15.4095 22.3645 16.3687 21.8261 16.8938C21.2878 17.419 20.3002 17.1623 18.3249 16.649L17.8139 16.5162C17.2526 16.3704 16.972 16.2974 16.6948 16.339C16.4176 16.3807 16.1752 16.5322 15.6905 16.8353L15.2491 17.1112C13.5433 18.1775 12.6904 18.7108 12.0044 18.3696C11.3182 18.0284 11.2534 17.0388 11.1237 15.0596L11.0902 14.5475C11.0533 13.9852 11.0349 13.7039 10.9054 13.46C10.776 13.2162 10.5502 13.0372 10.0986 12.6794L9.68748 12.3536C8.0983 11.0944 7.30372 10.4648 7.41804 9.72875C7.53237 8.99274 8.47989 8.63778 10.375 7.92786L10.8652 7.74419C11.4037 7.54246 11.673 7.4416 11.8702 7.24922C12.0674 7.05685 12.1702 6.79476 12.3759 6.27056L12.5631 5.79332Z" fill="white"/>
<g opacity="0.5">
<path d="M6.03144 10.8108C3.49279 13.2363 1.8283 17.2827 2.92855 23.7352C3.91061 21.0231 6.60147 18.7774 9.78369 17.4358C9.67265 16.8184 9.62339 16.0646 9.57145 15.2697L9.53084 14.6498C9.52139 14.5055 9.51418 14.3961 9.50648 14.302C9.50329 14.2629 9.50029 14.2302 9.49748 14.2026C9.4733 14.1819 9.44382 14.1572 9.40763 14.1276C9.33218 14.0659 9.24367 13.9957 9.12806 13.9041L8.63307 13.5119C7.91108 12.94 7.23854 12.4073 6.77613 11.916C6.51247 11.636 6.21762 11.2667 6.03144 10.8108Z" fill="white"/>
<path d="M11.2778 16.8842C11.2725 16.8452 11.2673 16.8054 11.2622 16.7649L11.3206 16.8705C11.3064 16.8751 11.2921 16.8796 11.2778 16.8842Z" fill="white"/>
</g>
</svg>
