<svg width="284" height="268" viewBox="0 0 284 268" fill="none" xmlns="http://www.w3.org/2000/svg">
<g style="mix-blend-mode:multiply" opacity="0.2">
<path d="M0 226.465C0 230.596 63.4544 233.93 141.677 233.93C219.901 233.93 283.355 230.584 283.355 226.465C283.355 222.347 219.901 219 141.677 219C63.4544 219 0 222.334 0 226.465Z" fill="#1C0303"/>
</g>
<g style="mix-blend-mode:multiply" opacity="0.2">
<path d="M209 264C209 266.213 217.286 268 227.5 268C237.714 268 246 266.207 246 264C246 261.793 237.714 260 227.5 260C217.286 260 209 261.787 209 264Z" fill="#1C0303"/>
</g>
<path d="M38.2881 52.3887V64.445L77.692 169.045L81.2878 178.588C81.2878 178.588 186.473 191.814 190.305 175.528C190.927 172.877 190.74 167.826 189.956 161.232C188.439 148.578 184.718 130.251 180.264 112.222C172.799 81.8763 163.231 52.3887 158.702 52.3887C152.63 52.3887 95.7081 52.4633 62.3385 52.4633C48.3537 52.4882 38.4996 52.4882 38.2881 52.3887Z" fill="#37474F"/>
<g style="mix-blend-mode:multiply" opacity="0.5">
<path d="M38.2881 52.3887V64.445L77.692 169.045L101.531 178.588L181.844 168.709L189.957 161.244C188.439 148.59 184.718 130.263 180.264 112.235C171.181 118.705 156.164 124.54 131.74 123.619C89.4373 122.014 68.5844 71.3627 62.2763 52.4757C48.3537 52.4882 38.4996 52.4882 38.2881 52.3887Z" fill="#5E5E5E"/>
</g>
<path d="M17 68.6631C17 86.2189 32.7516 87.9358 41.5233 84.5516L59.3029 132.254H72.2551C72.2551 132.254 54.4132 65.5277 44.8079 55.9349C39.8311 51.0203 32.7018 51.0825 26.879 54.0686C21.3298 56.9303 17 62.4421 17 68.6631Z" fill="white"/>
<path d="M173.047 158.246C180.065 165.711 221.907 161.132 221.907 161.132L231.177 141.772L240.682 121.927H174.155C169.066 121.977 166.018 150.78 173.047 158.246Z" fill="#37474F"/>
<g style="mix-blend-mode:multiply" opacity="0.5">
<path d="M173.047 158.246C180.065 165.711 221.907 161.132 221.907 161.132L231.177 141.772C230.704 137.107 229.298 134.543 226.125 137.704C217.03 146.786 197.907 156.541 185.178 144.41C176.569 136.211 179.592 126.991 182.454 121.927H174.155C169.066 121.977 166.018 150.78 173.047 158.246Z" fill="#5E5E5E"/>
</g>
<path d="M226.424 130.525C237.336 115.594 259.657 121.094 257.168 137.99C254.68 154.886 232.471 154.364 232.471 154.364L216.122 229.165H204.613C204.613 229.165 215.525 145.393 226.424 130.525Z" fill="white"/>
<path d="M231.563 138.027C232.981 133.685 240.596 124.59 248.359 129.927C254.817 134.369 244.316 147.035 237.062 147.035C229.808 147.035 230.692 140.69 231.563 138.027Z" fill="#37474F"/>
<path d="M128.281 178.588L141.495 229.203H206.902L213.385 191.864L215.438 180.007L128.281 178.588Z" fill="#37474F"/>
<g style="mix-blend-mode:multiply" opacity="0.5">
<path d="M128.294 178.588L141.495 229.165H163.741C149.072 214.135 157.346 191.839 165.881 191.839H213.435L215.488 179.982L128.294 178.588Z" fill="#5E5E5E"/>
</g>
<path d="M124.176 158.295V183.478H216.371L218.138 175.441L221.896 158.295H124.176Z" fill="white"/>
<g style="mix-blend-mode:multiply" opacity="0.18">
<path d="M124.188 158.246V178.7L124.811 183.428H216.384L218.138 175.391C205.846 175.503 180.364 174.93 161.527 174.93C144.369 174.93 140.102 164.902 139.131 158.246H124.188Z" fill="#1C0303"/>
</g>
<path d="M39.0352 150.606L62.6253 229.203H139.044L137.365 221.613L120.331 145.032L109.544 143.353L101.345 142.071L82.0473 139.073L57.1881 137.766L49.5362 143.178L39.0352 150.606Z" fill="#37474F"/>
<g style="mix-blend-mode:multiply" opacity="0.5">
<path d="M39.0352 150.606L62.675 229.203H139.094L137.402 221.613C119.51 222.77 83.2915 221.887 79.3847 196.318C74.1839 162.215 113.974 154.326 113.974 154.326L109.544 143.315L109.121 142.245C106.541 142.002 103.947 141.931 101.357 142.034C100.075 142.048 98.8076 142.31 97.6247 142.805C95.0243 144.261 63.2971 144.696 57.9346 143.875C56.2798 143.614 53.1444 143.365 49.6109 143.129L39.0352 150.606Z" fill="#5E5E5E"/>
</g>
<path d="M119.983 130.525C109.072 115.594 86.7505 121.094 89.2389 137.99C91.7273 154.886 113.899 154.326 113.899 154.326L130.285 229.165H141.794C141.794 229.165 130.882 145.393 119.983 130.525Z" fill="#657176"/>
<path d="M197.446 215.018C197.41 205.674 205.408 182.106 205.408 182.106L188.934 170.801C188.934 170.801 187.744 176.608 186.215 184.43C184.685 192.253 182.729 195.34 182.729 195.34C182.729 195.34 179.258 199.187 179.171 201.857C179.085 204.528 180.997 210.789 182.076 215.58C183.155 220.371 183.804 224.057 186.318 228.808C188.833 233.56 200.823 237.668 200.461 233.016C199.948 226.514 197.687 222.696 197.446 215.018Z" fill="#FFA8A7"/>
<path d="M182.729 195.34C181.742 195.222 180.441 196.902 179.552 198.104C178.662 199.305 176.425 200.154 176.635 203.412C176.846 206.67 179.54 209.275 179.768 213.718C179.996 218.161 179.686 225.76 185.811 231.519C191.936 237.278 198.686 238.206 201.264 236.913C201.646 236.733 201.988 236.479 202.271 236.166C202.555 235.853 202.773 235.486 202.913 235.088C203.016 234.742 203.046 234.379 203.001 234.021C202.955 233.663 202.836 233.319 202.65 233.01C201.998 231.32 201.413 229.621 200.895 227.914C199.753 224.391 198.9 220.782 198.344 217.121C198.041 214.752 198.092 212.587 197.524 212.179C196.157 211.138 194.528 210.498 192.818 210.329C190.297 209.815 188.875 209.806 188.481 210.027C188.088 210.248 188.043 211.041 187.965 211.583C187.853 212.331 187.742 213.07 187.621 213.807C187.608 213.978 187.56 214.144 187.478 214.295C187.435 214.369 187.371 214.429 187.294 214.466C187.217 214.503 187.13 214.516 187.045 214.504C186.959 214.467 186.883 214.41 186.822 214.338C186.762 214.267 186.718 214.182 186.696 214.091C185.665 211.463 185.437 208.601 184.934 205.821C184.621 204.121 184.155 202.454 183.54 200.839C183.173 199.818 182.61 198.327 182.348 197.383C182.188 196.894 182.225 196.361 182.451 195.898L182.729 195.34Z" fill="#455A64"/>
<path d="M211.431 217.624C211.431 217.624 215.877 230.777 218.57 235.681C221.29 240.867 224.812 245.592 229.007 249.679C229.938 250.599 232.159 252.266 232.953 253.008C233.14 253.149 233.293 253.33 233.401 253.538C233.509 253.745 233.569 253.975 233.578 254.208C233.586 254.442 233.542 254.675 233.45 254.89C233.357 255.105 233.218 255.297 233.042 255.451C231.439 257.329 223.944 258.519 219.389 255.784C214.834 253.049 210.021 247.451 207.284 245.172L203.617 242.121C202.676 241.339 202.777 240.898 202.969 239.708L202.608 237.753C202.111 233.739 196.771 224.702 196.771 224.702L211.431 217.624Z" fill="#FFA8A7"/>
<path d="M202.608 237.753C201.7 238.227 201.603 240.329 201.536 241.867C201.469 243.404 200.152 245.312 202.112 247.876C204.073 250.44 207.86 251.062 210.529 254.59C213.198 258.119 217.297 264.552 225.604 265.827C233.912 267.102 240.005 264.044 241.395 261.505C241.607 261.14 241.744 260.737 241.799 260.319C241.854 259.901 241.825 259.476 241.714 259.07C241.475 258.217 241.021 258.026 240.321 257.5C238.827 256.481 237.379 255.412 235.978 254.293C233.042 252.034 230.291 249.543 227.752 246.846C226.165 245.064 225.017 243.263 224.273 243.231C222.557 243.154 220.853 243.551 219.348 244.38C216.99 245.38 215.82 246.184 215.604 246.567C215.309 247.093 215.817 247.656 216.061 248.151L217.032 250.208C217.12 250.354 217.177 250.517 217.198 250.687C217.201 250.774 217.18 250.86 217.136 250.934C217.092 251.009 217.027 251.069 216.949 251.108C216.858 251.123 216.764 251.117 216.675 251.092C216.585 251.067 216.503 251.023 216.432 250.962C214.095 249.377 212.28 247.151 210.291 245.152C209.222 243.992 208.038 242.943 206.758 242.021C205.858 241.372 204.702 240.684 203.803 240.025C203.13 239.54 202.856 239.342 202.813 238.961L202.608 237.753Z" fill="#455A64"/>
<path d="M205.237 195.137C206.458 188.745 208.302 178.975 209.443 172.448C211.273 162.03 212.567 151.167 210.787 146.437C209.108 141.972 199.95 136.042 190.315 129.969C180.68 123.896 163.547 114.346 163.547 114.346L112.096 121.439C113.105 130.383 113.507 134.749 117.832 142.79C122.027 150.563 127.996 155.565 139.739 161.944C150.285 167.653 162.787 173.836 165.541 175.291C169.034 177.136 172.277 178.565 173.882 184.099C175.346 189.364 177.282 198.562 183.692 209.654L197.577 233.572C197.577 233.572 209.686 235.121 216.381 225.689C216.344 225.656 211.017 210.86 205.237 195.137Z" fill="#70B896"/>
<path opacity="0.3" d="M205.237 195.137C206.458 188.745 208.302 178.975 209.443 172.448C211.273 162.03 212.567 151.167 210.787 146.437C209.108 141.972 199.95 136.042 190.315 129.969C180.68 123.896 163.547 114.346 163.547 114.346L112.096 121.439C113.105 130.383 113.507 134.749 117.832 142.79C122.027 150.563 127.996 155.565 139.739 161.944C150.285 167.653 162.787 173.836 165.541 175.291C169.034 177.136 172.277 178.565 173.882 184.099C175.346 189.364 177.282 198.562 183.692 209.654L197.577 233.572C197.577 233.572 209.686 235.121 216.381 225.689C216.344 225.656 211.017 210.86 205.237 195.137Z" fill="black"/>
<path opacity="0.15" d="M203.873 191.43C198.443 176.696 192.981 162.119 191.408 158.995C188.099 152.368 159.349 133.633 158.395 133.039L159.77 131.145C161.263 128.856 162.253 126.277 162.675 123.578C162.835 126.513 162.366 129.448 161.3 132.187C165.717 135.181 176.956 142.798 181.456 146.036C187.142 150.113 193.117 155.026 195.54 161.939C197.384 167.042 201.731 183.332 203.873 191.43Z" fill="black"/>
<path d="M194.379 228.633L197.005 233.791C197.005 233.791 211.471 236.201 216.717 225.722L214.805 220.614C212.322 226.55 201.449 230.25 194.379 228.633Z" fill="#70B896"/>
<path d="M142.797 54.9906C154.256 54.7339 156.737 59.5426 159.181 64.2992C163.316 72.3569 170.343 97.5884 170.343 97.5884L202.368 114.88L195.837 125.23C195.837 125.23 165.454 113.942 161.281 111.721C158.701 110.348 157.281 109.453 155.544 105.671C152.086 98.1875 146.764 84.0282 146.764 84.0282L142.797 54.9906Z" fill="#FFA8A7"/>
<path d="M142.812 54.7829C146.205 54.482 151.146 55.1046 154.495 57.5861C157.844 60.0677 159.107 62.792 162.689 71.5076C166.27 80.2232 170.691 97.4536 170.691 97.4536L177.25 101.283C174.304 102.292 168.53 111.072 169.426 115.203C169.426 115.203 162.116 112.317 159.422 111.274C156.729 110.23 156.157 108.3 154.206 104.036C152.255 99.7713 146.191 83.6901 146.191 83.6901C146.191 83.6901 141.5 55.1989 142.812 54.7829Z" fill="#70B896"/>
<path opacity="0.7" d="M142.812 54.7829C146.205 54.482 151.146 55.1046 154.495 57.5861C157.844 60.0677 159.107 62.792 162.689 71.5076C166.27 80.2232 170.691 97.4536 170.691 97.4536L177.25 101.283C174.304 102.292 168.53 111.072 169.426 115.203C169.426 115.203 162.116 112.317 159.422 111.274C156.729 110.23 156.157 108.3 154.206 104.036C152.255 99.7713 146.191 83.6901 146.191 83.6901C146.191 83.6901 141.5 55.1989 142.812 54.7829Z" fill="white"/>
<path opacity="0.15" d="M170.692 97.4533C169.086 96.9435 164.531 97.7804 161.657 99.4805C161.657 99.4805 163.999 96.1317 170.299 95.9436L170.692 97.4533Z" fill="black"/>
<path d="M121.85 57.5118L109.886 61.1557C107.506 62.0544 110.714 76.1362 110.615 92.4151C110.506 109.121 112.216 130.282 112.216 130.282C112.216 130.282 124.839 134.742 144.013 127.989C160.934 122.004 163.537 114.346 163.537 114.346L158.88 106.779L158.125 91.4751C158.125 91.4751 164.651 83.4831 160.356 73.723C156.061 63.9628 142.833 54.7745 142.833 54.7745L136.639 55.2883L121.85 57.5118Z" fill="#70B896"/>
<path opacity="0.85" d="M121.85 57.5118L109.886 61.1557C107.506 62.0544 110.714 76.1362 110.615 92.4151C110.506 109.121 112.216 130.282 112.216 130.282C112.216 130.282 124.839 134.742 144.013 127.989C160.934 122.004 163.537 114.346 163.537 114.346L158.88 106.779L158.125 91.4751C158.125 91.4751 164.651 83.4831 160.356 73.723C156.061 63.9628 142.833 54.7745 142.833 54.7745L136.639 55.2883L121.85 57.5118Z" fill="white"/>
<path opacity="0.1" d="M123.765 94.0174C125.139 95.879 126.969 97.3552 129.079 98.3037C131.19 99.2523 133.509 99.6411 135.813 99.4327C137.977 99.2344 140.058 98.5085 141.875 97.3185C143.693 96.1286 145.19 94.5109 146.237 92.6075C146.237 92.6075 145.144 101.018 135.128 101.554C125.113 102.09 123.765 94.0174 123.765 94.0174Z" fill="black"/>
<path d="M148.886 15.5506C151.418 17.1894 154.344 23.8895 153.455 37.5268C152.648 49.1105 148.818 51.8184 146.896 52.57C144.973 53.3216 141.348 52.6613 137.837 51.9392L137.562 56.7353C141.883 64.2588 143.17 69.0641 144.737 76.1372C136.072 68.5698 133.058 65.9922 122.005 58.8455L122.777 42.7627C122.777 42.7627 120.652 44.7039 117.207 41.4596C114.408 38.7875 113.605 34.4537 115.968 32.2405C116.581 31.717 117.31 31.3465 118.094 31.1595C118.878 30.9725 119.695 30.9744 120.478 31.1649C121.261 31.3554 121.988 31.7292 122.599 32.2554C123.209 32.7816 123.686 33.4453 123.99 34.1919C123.99 34.1919 123.356 20.1501 131.043 16.3378C138.73 12.5255 148.197 20.0193 148.886 15.5506Z" fill="#FFA8A7"/>
<path d="M138.654 43.4905L142.298 44.7391C142.228 44.9839 142.11 45.2121 141.95 45.4099C141.79 45.6078 141.592 45.7712 141.367 45.8903C141.142 46.0094 140.895 46.0818 140.642 46.1031C140.388 46.1243 140.133 46.0941 139.891 46.014C139.644 45.9298 139.416 45.7977 139.22 45.6252C139.024 45.4528 138.864 45.2433 138.749 45.0089C138.634 44.7745 138.567 44.5197 138.55 44.2592C138.534 43.9986 138.569 43.7374 138.654 43.4905Z" fill="#F28F8F"/>
<path d="M151.895 27.4996L148.192 26.2469C148.254 26.0014 148.366 25.7714 148.522 25.5712C148.677 25.3709 148.871 25.2048 149.094 25.0831C149.316 24.9614 149.561 24.8867 149.813 24.8637C150.065 24.8407 150.32 24.8699 150.56 24.9494C151.074 25.1127 151.502 25.4723 151.752 25.9499C152.002 26.4275 152.053 26.9845 151.895 27.4996Z" fill="#455A64"/>
<path d="M134.789 28.8455L138.263 27.0977C138.162 26.8657 138.015 26.6568 137.83 26.4838C137.645 26.3109 137.427 26.1775 137.189 26.092C136.951 26.0064 136.698 25.9705 136.445 25.9864C136.193 26.0023 135.946 26.0697 135.72 26.1844C135.255 26.4255 134.899 26.8353 134.726 27.33C134.553 27.8247 134.575 28.3668 134.789 28.8455Z" fill="#455A64"/>
<path d="M151.215 32.8345C151.227 33.0451 151.197 33.256 151.127 33.455C151.056 33.6539 150.948 33.837 150.806 33.9937C150.665 34.1503 150.494 34.2774 150.303 34.3676C150.113 34.4579 149.906 34.5095 149.695 34.5194C149.369 34.5427 149.044 34.468 148.761 34.3049C148.478 34.1418 148.25 33.8978 148.107 33.6043C147.964 33.3107 147.911 32.981 147.957 32.6575C148.002 32.3341 148.144 32.0316 148.363 31.7891C148.581 31.5465 148.868 31.375 149.185 31.2965C149.502 31.218 149.835 31.2361 150.142 31.3485C150.449 31.4609 150.715 31.6624 150.906 31.9272C151.097 32.192 151.205 32.508 151.215 32.8345Z" fill="#263238"/>
<path d="M138.937 33.283C138.936 33.5925 138.843 33.8946 138.671 34.1518C138.499 34.409 138.255 34.61 137.969 34.7296C137.684 34.8492 137.369 34.8823 137.065 34.8246C136.761 34.767 136.481 34.6212 136.259 34.4054C136.037 34.1896 135.884 33.9134 135.818 33.611C135.752 33.3087 135.776 32.9936 135.888 32.7049C135.999 32.4163 136.193 32.1669 136.446 31.9877C136.698 31.8085 136.997 31.7074 137.307 31.6971C137.518 31.6928 137.729 31.7305 137.925 31.8081C138.122 31.8857 138.302 32.0016 138.453 32.1492C138.605 32.2967 138.726 32.4729 138.809 32.6676C138.892 32.8622 138.936 33.0714 138.937 33.283Z" fill="#263238"/>
<path d="M137.838 51.9197C134.123 51.273 126.539 48.7453 125.48 45.6572C125.881 47.2064 126.746 48.5961 127.959 49.6401C130.173 51.7044 137.697 54.2379 137.697 54.2379L137.838 51.9197Z" fill="#F28F8F"/>
<path d="M134.903 32.3554C134.846 32.2765 134.767 32.2158 134.676 32.1805L134.183 31.977L133.525 31.7123C133.342 31.6294 133.154 31.5566 132.963 31.4941L132.612 31.4C132.456 31.3642 132.296 31.353 132.136 31.3669C132.018 31.3586 131.985 31.5454 132.008 31.6464C132.022 31.7136 132.053 31.776 132.098 31.8279C132.143 31.8797 132.201 31.9193 132.265 31.943C132.354 31.9782 132.445 32.0078 132.538 32.0316L132.726 32.0447L132.845 32.0529L133.013 32.0647L133.605 32.2849C133.853 32.3959 134.115 32.4744 134.384 32.5183C134.518 32.5435 134.656 32.5325 134.784 32.4865C134.812 32.4736 134.837 32.4554 134.857 32.4329C134.877 32.4104 134.893 32.384 134.903 32.3554Z" fill="#F28F8F"/>
<path d="M134.728 33.5768C134.665 33.4831 134.584 33.4037 134.488 33.3439C134.393 33.2841 134.286 33.2453 134.175 33.2299C133.848 33.1761 133.516 33.1531 133.185 33.161C132.808 33.1348 132.432 33.1086 132.06 33.1623C131.689 33.216 131.892 33.7276 132.158 33.766C132.617 33.8325 133.08 33.8648 133.544 33.8625L134.098 33.9011L134.356 33.919L134.524 33.9307C134.623 33.9376 134.613 33.9369 134.679 33.8421C134.714 33.8485 134.751 33.8406 134.78 33.8203C134.81 33.8 134.83 33.7688 134.836 33.7336C134.843 33.6984 134.835 33.6621 134.814 33.6327C134.794 33.6033 134.763 33.5832 134.728 33.5768Z" fill="#F28F8F"/>
<path d="M134.643 34.3668C134.551 34.2708 134.406 34.3503 134.297 34.3427L134.055 34.3855L133.548 34.5194L133.073 34.6355L132.871 34.6712L132.618 34.7431C132.577 34.7564 132.542 34.7816 132.517 34.8154C132.491 34.8492 132.477 34.8899 132.475 34.9321L132.472 34.9816C132.473 35.0352 132.488 35.0876 132.514 35.1344C132.54 35.1812 132.577 35.2211 132.622 35.2508C132.695 35.2748 132.774 35.2803 132.85 35.2666L132.939 35.2728L133.167 35.2887L133.419 35.2366L133.916 35.1021C134.136 35.0577 134.344 34.9632 134.522 34.8259C134.588 34.7794 134.643 34.7187 134.683 34.6482C134.68 34.5485 134.709 34.431 134.643 34.3668Z" fill="#F28F8F"/>
<path d="M153.516 29.2243C153.522 29.2085 153.523 29.1913 153.519 29.1748C153.121 25.4562 152.58 22.6627 152.456 22.0174C152.462 21.9747 152.465 21.9317 152.465 21.8887C151.873 30.3834 140.745 29.1807 140.745 29.1807C143.222 23.7522 140.586 21.3103 140.586 21.3103C137.261 28.3413 131.567 29.2481 131.567 29.2481C131.923 24.1394 129.878 21.4999 129.878 21.4999C130.337 30.4856 124.023 34.1547 124.023 34.1547C123.72 33.4084 123.244 32.7448 122.635 32.2185C122.025 31.6922 121.299 31.3184 120.516 31.1279C119.734 30.9374 118.917 30.9356 118.134 31.1227C117.351 31.3098 116.623 31.6805 116.011 32.2041C113.638 34.4166 114.44 38.7602 117.249 41.433C120.656 44.6548 122.819 42.7361 122.819 42.7361L122.414 51.1145C122.225 47.1219 108.658 36.935 108.785 25.6721C108.914 14.6779 113.208 7.73434 125.238 3.70707C135.914 0.112855 145.056 7.98202 145.056 7.98202C150.736 7.99942 155.445 11.9486 156.797 18.3899C157.143 20.3267 157.026 22.3178 156.456 24.2007C155.886 26.0837 154.878 27.8051 153.516 29.2243Z" fill="#E0E0E0"/>
<path d="M129.829 21.4964C129.022 23.9704 127.541 26.1704 125.553 27.8491C123.564 29.5279 121.147 30.6188 118.572 30.9994C119.689 30.906 120.807 31.1584 121.775 31.7224C122.743 32.2864 123.514 33.1346 123.984 34.1519C123.984 34.1519 130.918 32.0082 129.829 21.4964Z" fill="#F0F0F0"/>
<path d="M156.719 27.935L155.967 27.8826C153.422 27.7133 150.868 27.9761 148.411 28.6598C145.979 29.5848 145.102 30.4688 143.771 30.5751C142.441 30.6815 141.471 29.8976 138.884 29.3295C136.2 29.0012 133.481 29.1109 130.833 29.6543L130.016 29.8064C129.732 29.9194 129.489 30.1166 129.32 30.3715C129.151 30.6265 129.064 30.9271 129.071 31.2329C129.149 31.8051 129.4 32.3399 129.79 32.7653C129.909 32.9534 129.992 33.1615 130.036 33.3793C130.192 34.8348 130.467 36.2749 130.86 37.6848C131.089 38.2426 131.422 38.7518 131.84 39.1856C131.999 39.3394 132.168 39.4809 132.348 39.609L132.643 39.7987C132.926 39.9537 133.224 40.0779 133.533 40.169L133.681 40.1793L133.929 40.1966L134.176 40.2138C134.438 40.2521 134.703 40.2706 134.968 40.2689L135.315 40.2931L135.744 40.2732C136.926 40.2751 138.084 39.9382 139.08 39.3022C140.077 38.6663 140.87 37.7581 141.366 36.6852C142.251 34.976 142.125 32.6492 143.644 32.546L143.921 32.5653C145.042 32.7528 144.833 34.907 145.484 36.4049C145.725 36.9999 146.071 37.5464 146.506 38.0181C146.583 38.1075 146.667 38.1899 146.758 38.2644C146.797 38.3058 146.841 38.3423 146.889 38.3731L147.031 38.4824C147.068 38.5172 147.109 38.5469 147.154 38.5706C147.197 38.6075 147.245 38.6377 147.297 38.6601L147.402 38.7271L147.481 38.7326C147.889 38.9504 148.328 39.1019 148.783 39.1814L148.902 39.1897C149.447 39.308 150.005 39.3602 150.562 39.3451C151.602 39.316 152.61 38.9809 153.461 38.3819C154.311 37.7828 154.966 36.9464 155.343 35.9771C155.826 34.5281 156.196 33.0437 156.448 31.5374C156.507 31.3206 156.609 31.1179 156.749 30.9415C157.15 30.4693 157.414 29.8956 157.511 29.2834C157.56 28.5705 157.135 27.9639 156.719 27.935ZM140.611 35.2399C140.402 36.1254 139.979 36.9463 139.38 37.6313C138.906 38.1254 138.338 38.5194 137.709 38.79C137.08 39.0606 136.403 39.2024 135.719 39.2069C135.075 39.2962 134.418 39.2095 133.819 38.9558C133.22 38.7022 132.701 38.2911 132.317 37.7663L132.209 37.6095C132.176 37.5599 132.146 37.5079 132.12 37.4541L132.031 37.2987C132.031 37.2987 132.037 37.2195 131.971 37.1652L131.918 37.0621L131.925 36.973C131.929 36.9136 131.932 36.8641 131.866 36.8097C131.803 36.6541 131.751 36.4943 131.711 36.3313L131.641 36.0479C131.652 35.8895 131.564 35.7242 131.544 35.5835C131.542 35.557 131.544 35.5303 131.549 35.5043L131.556 35.4152C131.346 34.2764 131.125 32.0226 131.713 31.4467C132.3 30.8708 133.785 30.2579 136.277 30.3319L136.534 30.3498C136.912 30.3513 137.289 30.3775 137.663 30.4284L138.095 30.5082C138.463 30.5796 138.825 30.6746 139.18 30.7927L139.51 30.9052L139.868 31.0594L139.937 31.0642L140.071 31.1333C140.347 31.2619 140.592 31.4487 140.789 31.6807C141.096 32.4184 140.991 33.9332 140.611 35.2399ZM155.002 33.7348C154.885 34.5153 154.606 35.2627 154.182 35.9289C153.759 36.595 153.201 37.1652 152.544 37.6028C151.974 37.9137 151.344 38.0972 150.696 38.1407C150.015 38.2752 149.309 38.2071 148.666 37.9449C148.023 37.6826 147.471 37.2377 147.078 36.6651L147.016 36.5613C146.994 36.5215 146.97 36.4833 146.944 36.4468L146.948 36.3874C146.952 36.328 146.887 36.2638 146.851 36.2115L146.766 35.9967L146.723 35.9042C146.72 35.8843 146.722 35.864 146.727 35.8448C146.727 35.8183 146.729 35.7918 146.733 35.7656L146.738 35.6963C146.65 35.4183 146.584 35.1344 146.538 34.8467C146.328 33.5785 146.242 32.0902 146.781 31.3518C147.32 30.6133 149.125 29.6944 150.9 29.3504C151.276 29.2782 151.655 29.2249 152.035 29.1907L152.164 29.1996L152.313 29.21L152.699 29.2369L153.332 29.281C153.521 29.2837 153.71 29.2968 153.897 29.3203L154.154 29.3382L154.293 29.3478L154.461 29.3596L154.723 29.4574C154.941 29.5407 155.145 29.659 155.325 29.8077C155.662 30.259 155.283 32.5605 155.002 33.7348Z" fill="#37474F"/>
<path d="M130.051 30.4458L122.805 32.4981C123.278 32.9877 123.675 33.5452 123.983 34.152L129.997 32.6605L130.051 30.4458Z" fill="#37474F"/>
<path d="M143.06 32.7939L143.655 41.9582L149.09 40.3469L143.579 32.6211C143.395 32.6376 143.217 32.6967 143.06 32.7939Z" fill="#F28F8F"/>
<path d="M167.496 129.066L171.12 134.174C171.145 134.206 171.158 134.245 171.159 134.285C171.16 134.326 171.147 134.365 171.124 134.398C171.101 134.431 171.067 134.456 171.029 134.468C170.99 134.481 170.949 134.48 170.91 134.467L164.882 132.605L167.496 129.066Z" fill="#FFA8A7"/>
<path d="M170.909 134.488C170.947 134.5 170.988 134.501 171.027 134.488C171.065 134.476 171.099 134.451 171.122 134.418C171.146 134.385 171.158 134.346 171.157 134.305C171.157 134.265 171.143 134.226 171.118 134.194L170.411 133.199C170.382 133.391 170.302 133.572 170.179 133.722C170.057 133.873 169.897 133.988 169.715 134.056L169.616 134.049L170.909 134.488Z" fill="#263238"/>
<path d="M143.476 117.127L143.94 117.468L144.508 117.886L164.881 132.625C165.58 132.531 166.219 132.178 166.671 131.636C167.004 131.309 167.253 130.907 167.395 130.462C167.537 130.018 167.568 129.545 167.485 129.086L147.131 114.358L146.042 113.565C146.72 114.12 144.115 117.669 143.476 117.127Z" fill="#70B896"/>
<path d="M145.255 118.435L146.307 119.185C146.609 119.415 147.321 118.917 147.877 118.209C148.689 117.271 149.26 115.918 148.864 115.612L148.097 115.051L147.813 114.852C148.209 115.158 147.636 116.531 146.825 117.46C146.242 118.125 145.6 118.618 145.294 118.447L145.255 118.435Z" fill="#EBEBEB"/>
<path d="M145.523 118.583C146.212 119.118 148.719 115.542 148.08 115.01L147.028 114.251C147.717 114.786 145.161 118.359 144.472 117.823L145.523 118.583Z" fill="#70B896"/>
<path d="M143.476 117.127L144.508 117.886C145.177 118.41 147.694 114.984 147.131 114.357L146.079 113.608C146.72 114.12 144.115 117.669 143.476 117.127Z" fill="#EBEBEB"/>
<path opacity="0.15" d="M171.103 134.421L171.119 134.194L167.055 131.125L145.507 115.538C145.512 115.468 145.514 115.439 145.514 115.439C144.856 116.457 143.883 117.434 143.506 117.129L143.97 117.47L144.538 117.888L164.911 132.627L170.939 134.49C170.97 134.493 171.001 134.489 171.03 134.477C171.059 134.465 171.084 134.446 171.103 134.421Z" fill="black"/>
<path d="M139.081 113.946L143.476 117.127C143.768 117.366 144.429 116.865 145.035 116.171C145.846 115.233 146.428 113.881 146.042 113.565L141.64 110.354C140.758 109.725 139.252 111.351 138.851 112.677C138.756 112.886 138.727 113.12 138.768 113.347C138.809 113.574 138.918 113.783 139.081 113.946Z" fill="#F28F8F"/>
<path opacity="0.1" d="M140.528 113.599C140.943 113.279 141.279 112.868 141.51 112.398C141.741 111.928 141.861 111.411 141.861 110.887C141.849 110.764 141.81 110.645 141.744 110.541C141.679 110.436 141.59 110.348 141.485 110.284C140.586 109.913 139.227 111.43 138.841 112.686C138.753 112.892 138.728 113.119 138.767 113.339C138.807 113.559 138.909 113.763 139.063 113.925C139.384 114.176 139.948 114.066 140.528 113.599Z" fill="black"/>
<path d="M153.884 119.245C154.534 119.132 155.202 119.172 155.835 119.361C156.467 119.55 157.047 119.883 157.529 120.334C158.684 121.171 160.438 121.422 160.535 122.026C160.632 122.629 159.728 123.472 159.728 123.472L153.884 119.245Z" fill="#F28F8F"/>
<path d="M138.295 136.813C140.875 136.754 149.215 137.145 151.917 136.766C154.299 136.479 156.523 135.426 158.255 133.766C158.682 133.348 159.072 132.887 159.49 132.459C159.772 132.079 160.134 131.765 160.549 131.538C160.898 131.373 161.274 131.27 161.575 131.092C161.99 130.882 162.351 130.577 162.628 130.202C162.904 129.828 163.089 129.393 163.167 128.934C163.19 128.749 163.222 128.565 163.265 128.384C163.319 128.201 163.44 128.046 163.604 127.95C163.791 127.89 163.993 127.886 164.182 127.94C164.892 128.115 165.621 128.203 166.352 128.201C166.901 128.173 167.439 128.035 167.933 127.794C168.295 127.59 168.985 126.972 168.435 126.585C167.676 126.055 166.949 125.487 166.345 125.156C163.176 123.384 160.463 122.906 156.882 122.329C155.229 122.074 152.932 121.914 151.256 121.688C150.547 121.589 149.804 121.398 149.058 121.256L148.025 120.508C147.317 120.537 146.625 120.723 145.998 121.053C144.968 121.549 143.916 122.381 142.89 122.827C140.333 123.972 135.864 123.71 132.28 123.322" fill="#FFA8A7"/>
<path d="M201.134 99.1849L173.149 110.18L163.874 141.359L166.017 143.876L192.394 132.69L203.276 101.702L201.134 99.1849Z" fill="#F5F5F5"/>
<path d="M175.292 112.697L166.018 143.876L163.875 141.359L173.149 110.18L175.292 112.697Z" fill="#EBEBEB"/>
<path d="M203.668 101.083L175.059 112.323L165.494 144.248L166.163 145.071L193.183 133.641L204.337 101.896L203.668 101.083Z" fill="#70B896"/>
<path opacity="0.7" d="M203.668 101.083L175.059 112.323L165.494 144.248L166.163 145.071L193.183 133.641L204.337 101.896L203.668 101.083Z" fill="white"/>
<path d="M175.728 113.135L166.163 145.07L165.494 144.248L175.059 112.322L175.728 113.135Z" fill="#70B896"/>
<path opacity="0.15" d="M175.728 113.135L166.163 145.07L165.494 144.248L175.059 112.322L175.728 113.135Z" fill="black"/>
<path d="M204.337 101.895L175.729 113.135L166.163 145.07L193.183 133.64L204.337 101.895Z" fill="#70B896"/>
<g opacity="0.2">
<path d="M188.532 125.557C188.794 126.371 191.325 128.308 195.09 128.252L195.886 125.959L188.532 125.557Z" fill="black"/>
</g>
<path opacity="0.35" d="M176.793 114.711C176.644 115.129 176.798 115.348 177.135 115.222C177.54 115.012 177.852 114.657 178.01 114.229C178.158 113.821 178.005 113.592 177.668 113.717C177.263 113.928 176.951 114.283 176.793 114.711Z" fill="black"/>
<path d="M177.711 107.522C177.505 107.21 177.214 106.963 176.872 106.809C176.531 106.655 176.153 106.6 175.782 106.652C175.404 106.774 175.067 106.996 174.806 107.295C174.545 107.594 174.37 107.959 174.301 108.35C174.16 108.819 174.089 109.307 174.091 109.797L174.653 109.578C174.674 109.215 174.735 108.855 174.837 108.506C174.886 108.212 175.013 107.936 175.204 107.706C175.394 107.476 175.643 107.301 175.923 107.199C176.191 107.181 176.458 107.235 176.698 107.355C176.938 107.475 177.142 107.656 177.288 107.881C177.831 108.615 178.206 109.459 178.386 110.353C178.566 111.248 178.547 112.171 178.331 113.057C178.263 113.311 178.156 113.552 178.012 113.771C177.851 114.06 177.582 114.273 177.265 114.366C177.165 114.374 177.065 114.367 176.968 114.345C176.896 114.45 176.838 114.563 176.795 114.681C176.787 114.744 176.782 114.807 176.782 114.869L177.01 114.885C177.143 114.893 177.277 114.885 177.409 114.863C177.508 114.841 177.603 114.807 177.695 114.764C177.999 114.601 178.264 114.374 178.47 114.098C178.677 113.822 178.82 113.504 178.89 113.166C179.121 112.196 179.135 111.188 178.932 110.212C178.728 109.237 178.311 108.318 177.711 107.522Z" fill="#E0E0E0"/>
<path opacity="0.35" d="M180.72 113.164C180.582 113.582 180.736 113.802 181.073 113.676C181.475 113.464 181.783 113.11 181.938 112.682C182.086 112.274 181.982 112.048 181.595 112.171C181.19 112.382 180.878 112.736 180.72 113.164Z" fill="black"/>
<path d="M181.649 105.976C181.442 105.664 181.152 105.417 180.81 105.263C180.469 105.108 180.091 105.054 179.72 105.106C179.343 105.229 179.007 105.452 178.746 105.751C178.485 106.05 178.31 106.413 178.239 106.803C178.106 107.275 178.039 107.762 178.039 108.252L178.591 108.032C178.611 107.669 178.673 107.309 178.775 106.96C178.824 106.666 178.951 106.389 179.141 106.16C179.332 105.93 179.581 105.755 179.861 105.653C180.129 105.633 180.397 105.686 180.638 105.806C180.878 105.926 181.081 106.109 181.226 106.335C181.773 107.066 182.151 107.91 182.331 108.805C182.511 109.701 182.49 110.625 182.269 111.511C182.2 111.763 182.096 112.003 181.96 112.226C181.794 112.51 181.527 112.722 181.212 112.82C181.113 112.828 181.013 112.821 180.915 112.8C180.84 112.902 180.782 113.015 180.743 113.136C180.738 113.205 180.734 113.265 180.73 113.314C180.805 113.329 180.882 113.334 180.958 113.33C181.095 113.339 181.234 113.329 181.368 113.299C181.464 113.282 181.556 113.252 181.643 113.209C181.949 113.047 182.215 112.82 182.423 112.544C182.632 112.268 182.777 111.949 182.849 111.611C183.071 110.641 183.078 109.634 182.871 108.661C182.664 107.688 182.247 106.772 181.649 105.976Z" fill="#E0E0E0"/>
<path opacity="0.35" d="M184.658 111.618C184.51 112.035 184.614 112.251 185.001 112.129C185.406 111.918 185.718 111.564 185.876 111.135C186.014 110.727 185.861 110.498 185.523 110.623C185.121 110.836 184.813 111.19 184.658 111.618Z" fill="black"/>
<path d="M185.575 104.458C185.367 104.148 185.075 103.902 184.734 103.75C184.393 103.598 184.015 103.545 183.645 103.598C183.281 103.716 182.955 103.928 182.7 104.212C182.444 104.497 182.268 104.843 182.189 105.218C182.048 105.687 181.977 106.175 181.979 106.665L182.542 106.446C182.563 106.083 182.622 105.724 182.716 105.374C182.767 105.08 182.894 104.805 183.084 104.575C183.275 104.346 183.522 104.17 183.802 104.066C184.071 104.048 184.34 104.101 184.582 104.221C184.823 104.341 185.029 104.523 185.177 104.749C185.72 105.482 186.094 106.326 186.273 107.221C186.451 108.116 186.43 109.039 186.209 109.925C186.14 110.176 186.037 110.417 185.901 110.639C185.737 110.926 185.469 111.139 185.153 111.234C185.053 111.242 184.953 111.235 184.856 111.213C184.781 111.315 184.722 111.429 184.683 111.549C184.679 111.609 184.675 111.668 184.671 111.728L184.908 111.744C185.043 111.752 185.177 111.742 185.309 111.712C185.407 111.693 185.502 111.663 185.593 111.623C185.896 111.459 186.16 111.231 186.367 110.955C186.573 110.679 186.717 110.362 186.789 110.025C186.999 109.064 186.999 108.07 186.789 107.109C186.58 106.148 186.166 105.244 185.575 104.458Z" fill="#E0E0E0"/>
<path opacity="0.35" d="M188.587 110.07C188.439 110.478 188.592 110.708 188.929 110.582C189.334 110.371 189.646 110.017 189.804 109.588C189.952 109.181 189.799 108.951 189.462 109.077C189.057 109.288 188.745 109.642 188.587 110.07Z" fill="black"/>
<path d="M189.506 102.872C189.298 102.561 189.006 102.316 188.665 102.163C188.324 102.011 187.946 101.958 187.576 102.011C187.198 102.133 186.861 102.355 186.6 102.654C186.339 102.953 186.164 103.318 186.095 103.709C185.954 104.178 185.883 104.666 185.885 105.157L186.447 104.937C186.467 104.574 186.529 104.215 186.631 103.866C186.678 103.57 186.804 103.293 186.995 103.063C187.186 102.833 187.435 102.659 187.717 102.558C187.985 102.54 188.252 102.594 188.492 102.714C188.732 102.834 188.936 103.016 189.082 103.24C189.625 103.974 190 104.818 190.18 105.712C190.36 106.607 190.341 107.53 190.125 108.417C190.056 108.669 189.948 108.91 189.806 109.131C189.645 109.419 189.376 109.633 189.059 109.725C188.959 109.733 188.859 109.726 188.762 109.704C188.69 109.809 188.632 109.922 188.589 110.041C188.58 110.1 188.576 110.159 188.576 110.219C188.651 110.234 188.728 110.24 188.804 110.235C188.938 110.244 189.073 110.233 189.204 110.203C189.302 110.184 189.398 110.154 189.489 110.113C189.793 109.951 190.058 109.724 190.265 109.447C190.472 109.171 190.615 108.853 190.685 108.515C190.914 107.546 190.927 106.538 190.723 105.562C190.519 104.587 190.104 103.669 189.506 102.872Z" fill="#E0E0E0"/>
<path opacity="0.35" d="M192.505 108.523C192.367 108.931 192.52 109.161 192.857 109.035C193.259 108.823 193.568 108.468 193.722 108.04C193.87 107.633 193.766 107.407 193.38 107.529C192.975 107.74 192.663 108.094 192.505 108.523Z" fill="black"/>
<path d="M193.443 101.326C193.23 101.02 192.938 100.779 192.598 100.627C192.258 100.475 191.883 100.419 191.513 100.465C191.137 100.589 190.8 100.812 190.539 101.11C190.279 101.409 190.103 101.773 190.032 102.163C189.9 102.634 189.832 103.122 189.832 103.611L190.384 103.391C190.406 103.025 190.468 102.662 190.569 102.31C190.618 102.016 190.744 101.741 190.935 101.513C191.126 101.285 191.374 101.112 191.654 101.012C191.922 100.992 192.191 101.045 192.431 101.165C192.671 101.285 192.875 101.468 193.019 101.694C193.566 102.426 193.944 103.27 194.124 104.165C194.304 105.06 194.283 105.984 194.062 106.871C193.992 107.122 193.888 107.362 193.753 107.585C193.587 107.87 193.32 108.082 193.006 108.18C192.906 108.188 192.806 108.181 192.709 108.159C192.633 108.261 192.575 108.375 192.536 108.495C192.527 108.554 192.523 108.614 192.524 108.674C192.599 108.688 192.675 108.694 192.751 108.689C192.889 108.699 193.027 108.688 193.161 108.658C193.256 108.637 193.348 108.607 193.436 108.568C193.722 108.412 193.972 108.2 194.171 107.943C194.37 107.687 194.515 107.392 194.595 107.077C194.839 106.093 194.863 105.067 194.664 104.072C194.465 103.078 194.048 102.14 193.443 101.326Z" fill="#E0E0E0"/>
<path opacity="0.35" d="M196.452 106.977C196.305 107.385 196.408 107.611 196.795 107.488C197.2 107.278 197.512 106.923 197.67 106.495C197.808 106.087 197.654 105.857 197.317 105.983C196.915 106.195 196.607 106.55 196.452 106.977Z" fill="black"/>
<path d="M197.371 99.7786C197.163 99.468 196.872 99.2224 196.53 99.0702C196.189 98.9179 195.811 98.8652 195.441 98.918C195.063 99.0386 194.725 99.2606 194.464 99.5599C194.202 99.8592 194.028 100.224 193.96 100.616C193.819 101.085 193.748 101.573 193.75 102.063L194.312 101.844C194.335 101.478 194.394 101.116 194.487 100.762C194.54 100.47 194.668 100.197 194.858 99.9692C195.048 99.7417 195.294 99.5677 195.572 99.4643C195.842 99.4457 196.111 99.4991 196.353 99.6191C196.594 99.7391 196.8 99.9213 196.948 100.147C197.491 100.88 197.865 101.724 198.044 102.619C198.222 103.514 198.2 104.437 197.98 105.323C197.91 105.574 197.806 105.814 197.672 106.037C197.508 106.324 197.24 106.537 196.924 106.632C196.824 106.64 196.724 106.633 196.627 106.611C196.552 106.713 196.493 106.827 196.454 106.947C196.45 107.007 196.446 107.066 196.442 107.126C196.52 107.141 196.6 107.146 196.679 107.142C196.814 107.15 196.948 107.14 197.079 107.11C197.177 107.091 197.273 107.061 197.364 107.021C197.666 106.855 197.929 106.627 198.135 106.351C198.341 106.076 198.486 105.759 198.56 105.423C198.785 104.452 198.795 103.444 198.59 102.469C198.384 101.494 197.968 100.576 197.371 99.7786Z" fill="#E0E0E0"/>
<path opacity="0.35" d="M200.381 105.43C200.233 105.837 200.386 106.067 200.723 105.941C201.128 105.73 201.44 105.376 201.598 104.948C201.746 104.54 201.642 104.314 201.256 104.436C200.851 104.647 200.539 105.001 200.381 105.43Z" fill="black"/>
<path d="M201.299 98.2317C201.091 97.9211 200.8 97.6755 200.459 97.5233C200.117 97.371 199.74 97.3183 199.37 97.3711C198.993 97.491 198.656 97.7116 198.395 98.009C198.134 98.3064 197.959 98.6693 197.889 99.0587C197.748 99.5318 197.677 100.023 197.678 100.516L198.241 100.297C198.262 99.9307 198.324 99.568 198.425 99.2155C198.474 98.9221 198.6 98.6471 198.791 98.419C198.982 98.1909 199.23 98.0179 199.511 97.9181C199.778 97.9002 200.046 97.9539 200.286 98.0738C200.526 98.1936 200.729 98.3754 200.876 98.6002C201.418 99.3337 201.793 100.178 201.973 101.072C202.153 101.967 202.135 102.89 201.918 103.776C201.849 104.029 201.742 104.27 201.6 104.49C201.438 104.779 201.17 104.993 200.852 105.085C200.753 105.093 200.652 105.086 200.555 105.064C200.484 105.169 200.426 105.282 200.382 105.4C200.374 105.459 200.369 105.519 200.37 105.579C200.445 105.594 200.521 105.6 200.598 105.595C200.732 105.603 200.867 105.593 200.998 105.563C201.096 105.543 201.191 105.513 201.283 105.473C201.586 105.309 201.85 105.081 202.056 104.805C202.262 104.529 202.407 104.212 202.478 103.875C202.707 102.905 202.72 101.897 202.517 100.922C202.313 99.947 201.897 99.0285 201.299 98.2317Z" fill="#E0E0E0"/>
<path d="M202.142 108.129L200.23 113.597C199.289 116.248 194.032 116.886 191.255 117.041C185.863 117.332 185.188 118.449 186.201 122.33C187.145 125.918 190.528 127.477 195.389 127.248C196.924 127.059 198.382 126.467 199.614 125.532C200.847 124.598 201.81 123.354 202.405 121.926C204.281 117.57 203.772 112.73 204.579 110.14C205.386 107.549 203.575 106.707 202.142 108.129Z" fill="#FFA8A7"/>
<path d="M132.371 123.288C125.39 122.533 109.593 119.225 109.593 119.225L115.309 88.434C117.614 81.1927 113.713 63.919 109.893 61.1957C108.084 61.5971 104.368 62.3929 99.9244 68.2018C97.4955 71.3655 96.5949 77.0133 94.1113 90.6788C92.3425 100.365 90.9848 113.721 90.2306 122.553C89.3727 132.302 93.1942 135.284 102.017 136.446C116.807 138.361 132.394 136.959 138.263 136.83" fill="#FFA8A7"/>
<path d="M110.794 60.831C104.883 61.852 102.474 63.5944 99.3433 68.1219C96.2126 72.6494 94.0574 86.885 91.6889 102.041C89.3204 117.197 89.0875 126.114 89.1579 128.676C89.2282 131.238 91.185 135.284 97.4572 136.218C101.647 136.824 105.874 137.135 110.107 137.149C110.107 137.149 109.617 126.032 114.715 120.258L109.951 119.091L116.806 85.5043C116.806 85.5043 117.645 67.8939 110.794 60.831Z" fill="#70B896"/>
<path opacity="0.7" d="M110.794 60.831C104.883 61.852 102.474 63.5944 99.3433 68.1219C96.2126 72.6494 94.0574 86.885 91.6889 102.041C89.3204 117.197 89.0875 126.114 89.1579 128.676C89.2282 131.238 91.185 135.284 97.4572 136.218C101.647 136.824 105.874 137.135 110.107 137.149C110.107 137.149 109.617 126.032 114.715 120.258L109.951 119.091L116.806 85.5043C116.806 85.5043 117.645 67.8939 110.794 60.831Z" fill="white"/>
<path opacity="0.15" d="M109.951 119.091C106.302 118.542 102.572 118.99 99.1564 120.389C99.1564 120.389 101.69 116.864 110.355 116.731L109.951 119.091Z" fill="black"/>
<path d="M36.1859 155.284C48.628 158.158 116.91 154.326 116.91 154.326L113.351 143.527L106.21 121.853C106.21 121.853 61.9409 121.318 40.2669 123.607C34.3569 124.229 30.1267 125.063 28.9571 126.182C23.5075 131.371 23.7937 152.398 36.1859 155.284Z" fill="#37474F"/>
<g style="mix-blend-mode:multiply" opacity="0.5">
<path d="M36.1862 155.284C48.6282 158.158 116.91 154.326 116.91 154.326L113.352 143.527L111.224 141.2C111.224 141.2 62.6006 150.743 48.9144 140.304C40.2049 133.673 39.5953 127.352 40.292 123.607C34.3821 124.229 30.1518 125.063 28.9822 126.182C23.5077 131.371 23.7939 152.398 36.1862 155.284Z" fill="#5E5E5E"/>
</g>
<path d="M122.956 130.525C112.044 115.594 89.7358 121.094 92.2118 137.99C94.6877 154.886 116.909 154.364 116.909 154.364L133.27 229.165H144.779C144.779 229.165 133.868 145.393 122.956 130.525Z" fill="white"/>
<path d="M120.343 138.027C118.925 133.685 111.31 124.59 103.546 129.927C97.089 134.369 107.578 147.035 114.844 147.035C122.11 147.035 121.214 140.69 120.343 138.027Z" fill="#37474F"/>
</svg>
