<svg width="95" height="130" viewBox="0 0 95 130" fill="none" xmlns="http://www.w3.org/2000/svg">
<g style="mix-blend-mode:multiply" opacity="0.2">
<path d="M3.5459 127.045C3.5459 128.679 23.9178 130 49.0459 130C74.1739 130 94.5459 128.679 94.5459 127.045C94.5459 125.412 74.1739 124.091 49.0459 124.091C23.9178 124.091 3.5459 125.412 3.5459 127.045Z" fill="#1C0303"/>
</g>
<path d="M24.6904 87.9054V107.562C24.6933 112.62 26.7044 117.469 30.2816 121.045C33.8588 124.62 38.7093 126.628 43.7669 126.628H53.9288C58.9853 126.628 63.8348 124.619 67.4103 121.044C70.9858 117.468 72.9945 112.619 72.9945 107.562V87.9054C72.9945 87.0881 62.1766 86.4214 48.8532 86.4214C44.4121 86.4214 40.2505 86.4967 36.6911 86.6257C29.5079 86.9268 24.6904 87.3569 24.6904 87.9054Z" fill="#F0A905"/>
<g style="mix-blend-mode:multiply" opacity="0.11">
<path d="M24.6904 87.9051V107.562C24.6933 112.62 26.7044 117.469 30.2816 121.044C33.8588 124.62 38.7093 126.628 43.7669 126.628H53.9288C58.4715 126.633 62.8659 125.012 66.3166 122.058C30.8306 119.187 37.0245 87.647 37.0245 87.647L36.6911 86.6577C29.5079 86.9265 24.6904 87.3567 24.6904 87.9051Z" fill="#1C0303"/>
</g>
<path d="M24.6904 87.6145C24.6904 89.292 35.5083 90.6577 48.8424 90.6577C62.1766 90.6577 72.9945 89.292 72.9945 87.6145C72.9945 85.937 62.1873 84.582 48.8424 84.582C35.4975 84.582 24.6904 85.937 24.6904 87.6145Z" fill="#FFEEB3"/>
<path d="M30.54 87.6147C30.54 88.8836 38.7341 89.9159 48.8207 89.9159C58.9074 89.9159 67.1014 88.8406 67.1014 87.6147C67.1014 86.3888 58.9074 85.3135 48.8207 85.3135C38.7341 85.3135 30.54 86.3458 30.54 87.6147Z" fill="#87130C"/>
<path d="M48.9281 32.3318C49.0544 32.3798 49.1837 32.4193 49.3152 32.4501C51.9808 33.0011 54.7471 32.8 57.3049 31.8694L57.8964 27.568L58.9718 31.278C61.7717 30.1343 64.4106 28.6305 66.8217 26.8046L67.768 26.0841L66.9722 23.0086L69.1229 24.8905C72.3126 21.9575 75.1622 18.675 77.6181 15.1049L76.5427 12.9542L78.3493 14.0296C81.3599 9.55735 84.0652 4.88693 86.4466 0.0502027C86.4466 -0.433698 62.9935 2.50197 55.0468 12.2875C52.7315 15.0455 50.9962 18.2421 49.9449 21.6862C48.8936 25.1302 48.5478 28.751 48.9281 32.3318Z" fill="#339100"/>
<g style="mix-blend-mode:multiply" opacity="0.11">
<path d="M49.315 32.4502C51.9806 33.0011 54.7468 32.8001 57.3047 31.8695L57.8962 27.5681L58.9716 31.278C61.7715 30.1344 64.4104 28.6306 66.8215 26.8046L67.7678 26.0842L66.972 23.0087L69.1227 24.8906C72.3124 21.9576 75.162 18.6751 77.6178 15.105L76.5425 12.9543L78.3491 14.0297C81.3597 9.55744 84.065 4.88702 86.4464 0.050293C85.8227 0.770768 72.5853 16.4061 64.1116 21.6215C55.638 26.8369 48.4762 29.6113 49.315 32.4502Z" fill="#1C0303"/>
</g>
<path d="M49.1539 73.3775L48.9496 73.442C47.5136 73.7342 46.0246 73.6225 44.6483 73.1194L44.3364 70.7967L43.7557 72.8075C42.2439 72.1894 40.8195 71.376 39.5189 70.388L39.0028 70.0009L39.4329 68.3341L38.25 69.4095C36.523 67.8234 34.9792 66.0488 33.6475 64.1188L34.2283 62.9682L33.2497 63.5381C31.6293 61.1265 30.1673 58.6121 28.873 56.0108C28.873 55.7527 41.5513 57.3442 45.8419 62.6241C47.0849 64.104 48.0184 65.8182 48.5873 67.6652C49.1562 69.5123 49.3489 71.4546 49.1539 73.3775Z" fill="#339100"/>
<g style="mix-blend-mode:multiply" opacity="0.11">
<path d="M48.9925 73.4419C47.5565 73.7341 46.0675 73.6225 44.6912 73.1193L44.3793 70.7966L43.7986 72.8075C42.2868 72.1894 40.8624 71.3759 39.5618 70.388L39.0457 70.0009L39.4758 68.3341L38.2929 69.4094C36.5659 67.8234 35.0222 66.0488 33.6905 64.1188L34.2712 62.9682L33.2926 63.5381C31.6723 61.1264 30.2103 58.612 28.916 56.0107C29.2494 56.3979 36.4433 64.8392 40.9812 67.6566C45.5192 70.474 49.4011 71.8719 48.9925 73.4419Z" fill="#1C0303"/>
</g>
<path d="M0 23.0082C0 23.0082 1.30118 25.632 5.538 28.3203L7.17247 27.245L6.39826 28.8687C8.80532 30.247 11.3782 31.313 14.0546 32.041L15.4418 29.7935L15.915 32.5249C19.6587 33.3753 23.4458 34.0214 27.2597 34.4605L29.9696 30.6108L29.5717 34.7186C33.0881 35.1057 36.4647 35.3853 39.3466 35.6219L40.3573 33.4712L40.6692 35.7617C44.4651 36.0627 47.1212 36.2886 47.5513 36.5897C48.7557 37.4392 47.5513 87.6681 47.5513 87.6681H50.8957V35.6971C50.8957 30.9011 43.0564 19.3413 26.7436 16.5239C22.0809 15.6493 17.2856 15.7751 12.6752 16.8929C8.06473 18.0108 3.74435 20.0952 0 23.0082Z" fill="#339100"/>
<g style="mix-blend-mode:multiply" opacity="0.11">
<path d="M0 23.0088C0 23.0088 1.30118 25.6326 5.538 28.3209L7.17247 27.2456L6.39826 28.8694C8.80532 30.2476 11.3782 31.3136 14.0546 32.0416L15.4418 29.7942L15.915 32.5255C19.6587 33.3759 23.4458 34.022 27.2597 34.4611L29.9696 30.6114L29.5717 34.7192C33.0881 35.1063 36.4647 35.3859 39.3466 35.6225L40.3573 33.4718L40.6692 35.7623C44.4651 36.0634 47.1212 36.2892 47.5513 36.5903C49.7557 33.8589 40.024 28.6435 23.7649 28.4177C7.50582 28.1919 0 23.0088 0 23.0088Z" fill="#1C0303"/>
</g>
<path d="M50.8963 59.946C50.8963 59.946 53.9932 61.774 59.8108 61.5159L60.9829 59.0104V61.4407L61.8754 61.3439L62.7464 61.2256C64.444 60.9668 66.1192 60.5785 67.7575 60.0642L68.435 59.8384C68.6501 59.7847 68.8651 59.6986 69.0909 59.6233L68.7146 55.7199L71.704 58.5803L72.3707 58.2792C72.661 58.1286 72.9514 57.9888 73.2525 57.8168C73.7902 57.5264 74.3278 57.2253 74.844 56.9027L75.4139 56.5371L75.9731 56.1608L76.5108 55.7737C76.8226 55.5478 77.1237 55.322 77.414 55.0855L77.6721 54.8811L78.2851 54.365C78.6829 54.0316 79.0593 53.6875 79.4249 53.3434C79.7905 52.9993 79.9949 52.7735 80.2637 52.5046L80.1347 50.0744L81.382 51.2788C81.6616 50.9562 81.9304 50.6336 82.1885 50.3002L82.6402 49.7088C83.1133 49.0851 83.5327 48.4829 83.9198 47.9022C84.0058 47.7624 84.0919 47.6334 84.1672 47.4936C84.7762 46.526 85.329 45.5243 85.8232 44.4934C85.8877 44.3536 85.9414 44.2246 86.006 44.0955C86.0705 43.9665 86.1135 43.8482 86.1673 43.7406L86.2748 43.4826L86.4899 42.9449V42.8804C86.4899 42.8804 68.4457 35.0735 59.542 42.8804C50.6382 50.6873 50.8963 59.946 50.8963 59.946Z" fill="#339100"/>
<g style="mix-blend-mode:multiply" opacity="0.11">
<path d="M50.8955 59.9464C50.8955 59.9464 53.9925 61.7745 59.81 61.5164L60.9822 59.0109V61.4411L61.8746 61.3444L62.7457 61.2261C64.4432 60.9673 66.1185 60.579 67.7568 60.0647L68.4342 59.8389C68.6493 59.7851 68.8643 59.6991 69.0902 59.6238L68.7138 55.7204L71.7032 58.5808L72.3699 58.2796C72.6603 58.1291 72.9506 57.9893 73.2517 57.8173C73.7894 57.5269 74.327 57.2258 74.8432 56.9032L75.4131 56.5376L75.9723 56.1613L76.51 55.7741C76.8219 55.5483 77.1229 55.3225 77.4133 55.0859L77.6713 54.8816L78.2843 54.3654C78.6821 54.0321 79.0585 53.688 79.4241 53.3439C79.7897 52.9997 79.9941 52.7739 80.2629 52.5051L80.1339 50.0749L81.3812 51.2792C81.6608 50.9566 81.9297 50.634 82.1877 50.3007L82.6394 49.7092C83.1125 49.0856 83.5319 48.4833 83.919 47.9027C84.0051 47.7629 84.0911 47.6338 84.1664 47.494C84.7754 46.5265 85.3283 45.5248 85.8224 44.4939C85.8869 44.3541 85.9407 44.225 86.0052 44.096C86.0697 43.967 86.1127 43.8486 86.1665 43.7411L86.274 43.483L86.4891 42.9454V42.8809C81.358 47.6192 75.2869 51.2245 68.6708 53.4622C57.5948 57.2151 50.8955 59.9464 50.8955 59.9464Z" fill="#1C0303"/>
</g>
</svg>
