<svg width="440" height="32" viewBox="0 0 440 32" fill="none" xmlns="http://www.w3.org/2000/svg">
<path d="M84.4992 10.6669V21.3338H80.1656V10.6669C80.1656 7.13052 77.2559 4.26689 73.666 4.26689C70.076 4.26689 67.1666 7.13052 67.1666 10.6669V21.3338H62.833V0H67.1666V2.13542C68.9765 0.793602 71.2295 0 73.666 0C76.1048 0 78.3551 0.793272 80.1656 2.13542C82.7973 4.08095 84.4992 7.17973 84.4992 10.6669Z" fill="#1D293F"/>
<path d="M110.499 0.000332593V15.9995C110.499 17.8691 110.172 19.6647 109.575 21.3338C107.343 27.5478 101.325 32 94.2503 32C93.8857 32 93.5241 31.9881 93.1673 31.9623C91.6562 31.8682 90.2025 31.5637 88.8333 31.0898V26.453C90.1532 27.1182 91.6183 27.5478 93.1673 27.6836C93.5218 27.7149 93.8837 27.7341 94.2503 27.7341C99.5603 27.7341 104.059 24.3156 105.599 19.5894C103.894 20.6941 101.857 21.3338 99.6673 21.3338C97.2298 21.3338 94.9778 20.5385 93.1669 19.198C90.5342 17.2509 88.833 14.1544 88.833 10.6669V0H93.1669V10.6669C93.1669 14.2006 96.076 17.0669 99.6673 17.0669C102.449 17.0669 104.826 15.3426 105.749 12.9182C106.019 12.2191 106.167 11.4592 106.167 10.6669V0H110.499V0.000332593Z" fill="#1D293F"/>
<path d="M125.668 0.000488281C119.684 0.000488281 114.833 4.77662 114.833 10.6674C114.833 16.5575 119.684 21.3343 125.668 21.3343C131.65 21.3343 136.5 16.5575 136.5 10.6674C136.5 4.77662 131.65 0.000488281 125.668 0.000488281ZM125.668 17.0671C122.076 17.0671 119.167 14.2008 119.167 10.667C119.167 7.13068 122.076 4.26705 125.668 4.26705C129.256 4.26705 132.167 7.13068 132.167 10.667C132.167 14.2011 129.256 17.0671 125.668 17.0671Z" fill="#1D293F"/>
<path d="M4.33392 6.52449C4.33392 7.40164 4.84108 8.16057 5.58369 8.53343H8.66617C9.95282 8.53343 11.1519 8.90298 12.1615 9.5407C13.9691 10.6741 15.1665 12.6662 15.1665 14.9328C15.1665 18.4688 12.2575 21.3344 8.66617 21.3344H0V17.0675H8.48906C9.78411 17.0675 10.8343 16.0603 10.8343 14.8165C10.8343 13.9334 10.3027 13.1679 9.52684 12.8006H6.50105C5.21305 12.8006 4.01393 12.4317 3.00466 11.7947C1.19845 10.6613 0.000348027 8.66751 0.000348027 6.40064C0.000348027 2.86593 2.91109 0.000976562 6.50105 0.000976562H15.1669V4.26787H6.63019C5.36131 4.26754 4.33392 5.27844 4.33392 6.52449Z" fill="#1D293F"/>
<path d="M157.598 0.000488281V4.26738H151.099C149.174 4.26738 147.446 5.09104 146.257 6.40017C145.225 7.53327 144.599 9.02898 144.599 10.6674V21.3343H140.264V0.000488281H144.599V2.13591C145.859 1.20195 147.331 0.533522 148.932 0.215817C149.633 0.0724864 150.359 0.000820874 151.099 0.000820874H157.598V0.000488281Z" fill="#1D293F"/>
<path d="M58.4996 0.000488281V10.6674H54.167C54.1536 8.29878 52.8485 6.23438 50.9118 5.12868C49.9562 4.58013 48.8496 4.26738 47.6653 4.26738C44.0887 4.26738 41.1844 7.13001 41.1659 10.6674V10.7024C41.1659 14.2569 44.0763 17.1374 47.6653 17.1374C48.857 17.1374 49.976 16.82 50.9349 16.2649C51.4753 17.5809 52.2031 18.8052 53.0823 19.9036C51.4904 20.8128 49.6399 21.3339 47.6653 21.3339C44.1219 21.3339 40.9751 19.6559 39.0001 17.0647C37.6383 15.2814 36.8333 13.066 36.8333 10.667C36.8333 8.29714 35.5262 6.22909 33.5805 5.12372C32.6252 4.57781 31.515 4.26705 30.3326 4.26705C26.7427 4.26705 23.8323 7.13068 23.8323 10.667C23.8323 14.2008 26.7427 17.0671 30.3326 17.0671C31.5146 17.0671 32.6252 16.755 33.5805 16.2087C34.1222 17.5469 34.8564 18.7906 35.75 19.9036C34.1571 20.8128 32.3076 21.3339 30.333 21.3339C25.6445 21.3339 21.6484 18.398 20.144 14.2909C19.7268 13.1582 19.499 11.9382 19.499 10.667C19.499 10.3054 19.5175 9.94907 19.5544 9.59999V0.000488281H30.333C31.6247 0.000488281 32.8647 0.224735 34.0145 0.634581C34.6193 0.847265 35.1989 1.11576 35.7503 1.43016C36.1471 1.65341 36.5261 1.90441 36.888 2.17654C37.6873 2.77364 38.3977 3.47774 39.0008 4.2687C39.6153 3.46024 40.3452 2.74127 41.1666 2.13591C42.0185 1.50513 42.9674 0.994559 43.9844 0.634581C45.1359 0.224735 46.3753 0.000488281 47.666 0.000488281H58.4996Z" fill="#70B896"/>
<path d="M45.5008 25.4759L38.7257 31.9998L31.915 25.4968C33.2272 25.3462 34.4857 25.0334 35.6724 24.5714L38.7257 27.5027L41.7974 24.5205C42.968 24.9862 44.2094 25.3095 45.5008 25.4759Z" fill="#F0A905"/>
<path d="M30.3325 9.1465C31.3464 9.1465 32.2078 9.78059 32.5361 10.6673H34.7375C34.7375 9.22444 34.022 7.94505 32.9215 7.15772V7.1554C32.195 6.6369 31.3001 6.3291 30.3321 6.3291C27.8997 6.3291 25.9268 8.27099 25.9268 10.6673H28.1281C28.4571 9.78059 29.3185 9.1465 30.3325 9.1465Z" fill="#1D293F"/>
<path d="M47.4456 9.1465C48.4595 9.1465 49.3209 9.78059 49.6493 10.6673H51.9999C51.9999 9.24987 51.3116 7.99194 50.2466 7.19999C49.5067 6.65408 48.5893 6.3291 47.5948 6.3291C45.1617 6.3291 43.1885 8.27099 43.1885 10.6673H45.2416C45.5703 9.78059 46.4316 9.1465 47.4456 9.1465Z" fill="#1D293F"/>
</svg>
