<svg width="34" height="35" viewBox="0 0 34 35" fill="none" xmlns="http://www.w3.org/2000/svg">
<path d="M15.5833 12.1187H7.08333C5.51853 12.1187 4.25 13.3872 4.25 14.952V29.1187C4.25 30.6835 5.51853 31.952 7.08333 31.952H15.5833C17.1481 31.952 18.4167 30.6835 18.4167 29.1187V14.952C18.4167 13.3872 17.1481 12.1187 15.5833 12.1187Z" stroke="#70B896" stroke-width="2.5" stroke-linecap="round" stroke-linejoin="round"/>
<path d="M7.08203 6.45223C7.08203 5.70078 7.38054 4.98011 7.9119 4.44876C8.44325 3.91741 9.16392 3.6189 9.91536 3.6189H26.9154C27.6668 3.6189 28.3875 3.91741 28.9188 4.44876C29.4502 4.98011 29.7487 5.70078 29.7487 6.45223V22.1189" stroke="#70B896" stroke-width="2.5" stroke-linecap="round" stroke-linejoin="round"/>
<path d="M25 28.7854H31" stroke="#70B896" stroke-width="2.5" stroke-linecap="round" stroke-linejoin="round"/>
<path d="M28 25.7854V31.7854" stroke="#70B896" stroke-width="2.5" stroke-linecap="round" stroke-linejoin="round"/>
<path d="M11.332 26.2854H11.3462" stroke="#70B896" stroke-width="2.5" stroke-linecap="round" stroke-linejoin="round"/>
</svg>
