<svg width="25" height="25" viewBox="0 0 25 25" fill="none" xmlns="http://www.w3.org/2000/svg">
<path d="M13.0008 5.31841C13.002 4.91844 12.9232 4.52227 12.769 4.15321C12.6148 3.78415 12.3884 3.44964 12.1031 3.16936C11.8177 2.88907 11.4792 2.66868 11.1075 2.52114C10.7357 2.3736 10.3382 2.30189 9.9383 2.31022C9.53842 2.31856 9.14424 2.40677 8.77894 2.56968C8.41365 2.73258 8.08462 2.96689 7.81121 3.25881C7.53779 3.55074 7.32552 3.89439 7.18686 4.26956C7.0482 4.64473 6.98596 5.04384 7.00381 5.44341C6.41601 5.59455 5.87031 5.87746 5.40804 6.27072C4.94577 6.66398 4.57905 7.15728 4.33565 7.71326C4.09225 8.26923 3.97857 8.8733 4.0032 9.47972C4.02782 10.0861 4.19013 10.679 4.47781 11.2134C3.97199 11.6243 3.57423 12.1526 3.31915 12.7523C3.06406 13.3521 2.95936 14.005 3.01417 14.6544C3.06898 15.3038 3.28162 15.93 3.63361 16.4784C3.9856 17.0269 4.46627 17.4811 5.03381 17.8014C4.96372 18.3436 5.00555 18.8945 5.15669 19.4199C5.30784 19.9454 5.5651 20.4342 5.91259 20.8564C6.26008 21.2785 6.69042 21.6249 7.17703 21.8742C7.66364 22.1235 8.19618 22.2703 8.74178 22.3057C9.28738 22.3411 9.83445 22.2643 10.3492 22.08C10.8639 21.8957 11.3354 21.6078 11.7346 21.2342C12.1337 20.8605 12.452 20.409 12.6698 19.9075C12.8876 19.406 13.0002 18.8652 13.0008 18.3184V5.31841Z" stroke="#70B896" stroke-width="2" stroke-linecap="round" stroke-linejoin="round"/>
<path d="M10 13.3184C10.8396 13.023 11.5727 12.4854 12.1067 11.7734C12.6407 11.0614 12.9515 10.207 13 9.31836" stroke="#70B896" stroke-width="2" stroke-linecap="round" stroke-linejoin="round"/>
<path d="M7.00391 5.44336C7.02368 5.92709 7.16024 6.39885 7.40191 6.81836" stroke="#70B896" stroke-width="2" stroke-linecap="round" stroke-linejoin="round"/>
<path d="M4.47656 11.2144C4.6595 11.0654 4.85527 10.9328 5.06156 10.8184" stroke="#70B896" stroke-width="2" stroke-linecap="round" stroke-linejoin="round"/>
<path d="M7.0002 18.3184C6.31103 18.3187 5.63347 18.1409 5.0332 17.8024" stroke="#70B896" stroke-width="2" stroke-linecap="round" stroke-linejoin="round"/>
<path d="M13 13.3184H17" stroke="#70B896" stroke-width="2" stroke-linecap="round" stroke-linejoin="round"/>
<path d="M13 18.3184H19C19.5304 18.3184 20.0391 18.5291 20.4142 18.9041C20.7893 19.2792 21 19.7879 21 20.3184V21.3184" stroke="#70B896" stroke-width="2" stroke-linecap="round" stroke-linejoin="round"/>
<path d="M13 8.31836H21" stroke="#70B896" stroke-width="2" stroke-linecap="round" stroke-linejoin="round"/>
<path d="M17 8.31836V5.31836C17 4.78793 17.2107 4.27922 17.5858 3.90415C17.9609 3.52907 18.4696 3.31836 19 3.31836" stroke="#70B896" stroke-width="2" stroke-linecap="round" stroke-linejoin="round"/>
<path d="M17 13.8184C17.2761 13.8184 17.5 13.5945 17.5 13.3184C17.5 13.0422 17.2761 12.8184 17 12.8184C16.7239 12.8184 16.5 13.0422 16.5 13.3184C16.5 13.5945 16.7239 13.8184 17 13.8184Z" stroke="#70B896" stroke-width="2" stroke-linecap="round" stroke-linejoin="round"/>
<path d="M19 3.81836C19.2761 3.81836 19.5 3.5945 19.5 3.31836C19.5 3.04222 19.2761 2.81836 19 2.81836C18.7239 2.81836 18.5 3.04222 18.5 3.31836C18.5 3.5945 18.7239 3.81836 19 3.81836Z" stroke="#70B896" stroke-width="2" stroke-linecap="round" stroke-linejoin="round"/>
<path d="M21 21.8184C21.2761 21.8184 21.5 21.5945 21.5 21.3184C21.5 21.0422 21.2761 20.8184 21 20.8184C20.7239 20.8184 20.5 21.0422 20.5 21.3184C20.5 21.5945 20.7239 21.8184 21 21.8184Z" stroke="#70B896" stroke-width="2" stroke-linecap="round" stroke-linejoin="round"/>
<path d="M21 8.81836C21.2761 8.81836 21.5 8.5945 21.5 8.31836C21.5 8.04222 21.2761 7.81836 21 7.81836C20.7239 7.81836 20.5 8.04222 20.5 8.31836C20.5 8.5945 20.7239 8.81836 21 8.81836Z" stroke="#70B896" stroke-width="2" stroke-linecap="round" stroke-linejoin="round"/>
</svg>
