<svg width="25" height="25" viewBox="0 0 25 25" fill="none" xmlns="http://www.w3.org/2000/svg">
<path d="M12 8.31836H6C4.89543 8.31836 4 9.21379 4 10.3184V20.3184C4 21.4229 4.89543 22.3184 6 22.3184H12C13.1046 22.3184 14 21.4229 14 20.3184V10.3184C14 9.21379 13.1046 8.31836 12 8.31836Z" stroke="#70B896" stroke-width="2" stroke-linecap="round" stroke-linejoin="round"/>
<path d="M6 4.31836C6 3.78793 6.21071 3.27922 6.58579 2.90415C6.96086 2.52907 7.46957 2.31836 8 2.31836H20C20.5304 2.31836 21.0391 2.52907 21.4142 2.90415C21.7893 3.27922 22 3.78793 22 4.31836V20.3184C22 20.8488 21.7893 21.3575 21.4142 21.7326C21.0391 22.1076 20.5304 22.3184 20 22.3184H17.6" stroke="#70B896" stroke-width="2" stroke-linecap="round" stroke-linejoin="round"/>
<path d="M9 18.3184H9.01" stroke="#70B896" stroke-width="2" stroke-linecap="round" stroke-linejoin="round"/>
</svg>
