<!-- Settings Icon SVG -->
<svg 
    width="9" 
    height="7" 
    viewBox="0 0 9 7" 
    fill="none" 
    xmlns="http://www.w3.org/2000/svg">
  
    <!-- Outer Path for the Settings Icon -->
    <path 
        d="M8.40013 0V2.3334H7.46696C7.46407 1.81526 7.18297 1.36367 6.76583 1.1218C6.56001 1.0018 6.32168 0.933389 6.06659 0.933389C5.29625 0.933389 4.67069 1.55959 4.66672 2.3334V2.34105C4.66672 3.11861 5.29358 3.74872 6.06659 3.74872C6.32327 3.74872 6.56427 3.6793 6.77082 3.55785C6.8872 3.84575 7.04397 4.11355 7.23332 4.35384C6.89045 4.55272 6.49188 4.66672 6.06659 4.66672C5.3034 4.66672 4.62562 4.29965 4.20025 3.73283C3.90694 3.34271 3.73355 2.8581 3.73355 2.33332C3.73355 1.8149 3.45202 1.36251 3.03293 1.12072C2.82718 1.0013 2.58806 0.933316 2.3334 0.933316C1.56017 0.933316 0.933316 1.55974 0.933316 2.33332C0.933316 3.10633 1.56017 3.73334 2.3334 3.73334C2.58798 3.73334 2.82718 3.66507 3.03293 3.54557C3.1496 3.83831 3.30775 4.11037 3.5002 4.35384C3.15712 4.55272 2.75877 4.66672 2.33347 4.66672C1.32365 4.66672 0.46294 4.02448 0.138927 3.12606C0.0490559 2.87826 0 2.61139 0 2.33332C0 2.25422 0.00397181 2.17627 0.0119186 2.0999V0H2.33347C2.61168 0 2.87876 0.0490544 3.12641 0.138709C3.25667 0.185234 3.38151 0.243967 3.50027 0.312743C3.58574 0.36158 3.66738 0.416486 3.74533 0.476015C3.91748 0.606631 4.0705 0.760654 4.20039 0.933677C4.33274 0.756825 4.48994 0.59955 4.66687 0.467127C4.85036 0.329142 5.05474 0.217454 5.27378 0.138709C5.5218 0.0490544 5.78874 0 6.06673 0H8.40013Z" 
        fill="#80CAA7"/>

    <!-- Inner Path for the Center Gear -->
    <path 
        d="M5.59993 5.57291L4.14068 7.00001L2.67377 5.57746C2.95639 5.54452 3.22745 5.4761 3.48305 5.37504L4.14068 6.01627L4.80229 5.36391C5.05442 5.46577 5.32179 5.5365 5.59993 5.57291Z" 
        fill="#FAB515"/>

    <!-- Left Circle Path -->
    <path 
        d="M2.33365 2.00054C2.55204 2.00054 2.73757 2.13925 2.80829 2.33323H3.28243C3.28243 2.01759 3.12833 1.73772 2.8913 1.5655V1.56499C2.73482 1.45157 2.54207 1.38423 2.33358 1.38423C1.80967 1.38423 1.38473 1.80903 1.38473 2.33323H1.85886C1.92973 2.13925 2.11526 2.00054 2.33365 2.00054Z" 
        fill="#2C3142"/>

    <!-- Right Circle Path -->
    <path 
        d="M6.01904 2.00054C6.23744 2.00054 6.42296 2.13925 6.49369 2.33323H6.99997C6.99997 2.02316 6.85173 1.74798 6.62235 1.57474C6.46298 1.45532 6.2654 1.38423 6.05119 1.38423C5.52714 1.38423 5.10213 1.80903 5.10213 2.33323H5.54433C5.61513 2.13925 5.80065 2.00054 6.01904 2.00054Z" 
        fill="#2C3142"/>

</svg>
