<svg width="25" height="25" viewBox="0 0 25 25" fill="none" xmlns="http://www.w3.org/2000/svg">
<path d="M8.5 4.58838L17.5 9.73838" stroke="#70B896" stroke-width="2" stroke-linecap="round" stroke-linejoin="round"/>
<path d="M22 8.31826C21.9996 7.96754 21.9071 7.62307 21.7315 7.31942C21.556 7.01578 21.3037 6.76362 21 6.58826L14 2.58826C13.696 2.41272 13.3511 2.32031 13 2.32031C12.6489 2.32031 12.304 2.41272 12 2.58826L5 6.58826C4.69626 6.76362 4.44398 7.01578 4.26846 7.31942C4.09294 7.62307 4.00036 7.96754 4 8.31826V16.3183C4.00036 16.669 4.09294 17.0135 4.26846 17.3171C4.44398 17.6207 4.69626 17.8729 5 18.0483L12 22.0483C12.304 22.2238 12.6489 22.3162 13 22.3162C13.3511 22.3162 13.696 22.2238 14 22.0483L21 18.0483C21.3037 17.8729 21.556 17.6207 21.7315 17.3171C21.9071 17.0135 21.9996 16.669 22 16.3183V8.31826Z" stroke="#70B896" stroke-width="2" stroke-linecap="round" stroke-linejoin="round"/>
<path d="M4.30078 7.31836L13.0008 12.3184L21.7008 7.31836" stroke="#70B896" stroke-width="2" stroke-linecap="round" stroke-linejoin="round"/>
<path d="M13 22.3184V12.3184" stroke="#70B896" stroke-width="2" stroke-linecap="round" stroke-linejoin="round"/>
</svg>
