<svg width="39" height="40" viewBox="0 0 39 40" fill="none" xmlns="http://www.w3.org/2000/svg">
<rect x="0.943359" y="0.988281" width="38" height="38" rx="9" transform="rotate(1.10797 0.943359 0.988281)" fill="#FF5959"/>
<path d="M18.1838 16.3947C18.1668 17.2765 17.4336 17.977 16.5482 17.9599C15.6628 17.9427 14.9572 17.2144 14.9743 16.3326C14.9916 15.4397 15.7246 14.7504 16.6099 14.7675C17.4953 14.7846 18.2009 15.5129 18.1838 16.3947Z" fill="white"/>
<path d="M22.047 19.2945L26.6892 20.8471C27.185 20.9683 27.5661 21.2995 27.5454 21.8016C27.5354 22.3151 27.1054 22.7981 26.5978 22.7101C26.3882 22.6725 26.3003 22.6373 26.1245 22.5669L22.2745 21.2754L20.4118 22.557L24.989 25.7497C24.9998 25.7611 25.0218 25.7727 25.0326 25.7841C25.2618 25.956 25.4116 26.2269 25.4055 26.5394C25.3956 27.0529 24.9781 27.458 24.4579 27.4479C24.2145 27.4432 24.0393 27.3393 23.8319 27.1901L13.6195 19.9802L11.7672 14.4282C11.7466 14.3496 11.7034 14.2929 11.6956 14.1253C11.6501 13.6107 12.123 13.2067 12.6431 13.2168C13.0416 13.2245 13.3797 13.4879 13.5058 13.8365L13.5169 13.8367L15.2974 18.5163L17.2683 18.5098L20.7273 15.4054C20.9084 15.1968 21.1656 15.0677 21.4644 15.0735C21.9735 15.0834 22.3861 15.5045 22.3761 16.018C22.3705 16.3082 22.2327 16.5623 22.0303 16.7259L22.0411 16.7373L18.7822 19.8009L19.9446 20.3817L22.047 19.2945Z" fill="white"/>
</svg>
